<?xml version="1.0" encoding="UTF-8" standalone="no"?>
<!DOCTYPE svg PUBLIC "-//W3C//DTD SVG 1.1//EN"
 "http://www.w3.org/Graphics/SVG/1.1/DTD/svg11.dtd">
<!-- Generated by graphviz version 2.40.1 (20161225.0304)
 -->
<!-- Title: G Pages: 1 -->
<svg width="271pt" height="376pt"
 viewBox="0.00 0.00 271.00 376.00" xmlns="http://www.w3.org/2000/svg" xmlns:xlink="http://www.w3.org/1999/xlink">
<g id="graph0" class="graph" transform="scale(1 1) rotate(0) translate(4 372)">
<title>G</title>
<g id="clust1" class="cluster">
<title>cluster_0</title>
<polygon fill="#f4cccc" stroke="#f4cccc" points="1,-8 1,-360 67,-360 67,-8 1,-8"/>
<text text-anchor="middle" x="34" y="-347.2" font-family="Times,serif" font-size="11.00" fill="#000000">Input [784]</text>
</g>
<g id="clust2" class="cluster">
<title>cluster_1</title>
<polygon fill="#d8ead2" stroke="#d8ead2" points="195,-108 195,-260 263,-260 263,-108 195,-108"/>
<text text-anchor="middle" x="229" y="-247.2" font-family="Times,serif" font-size="11.00" fill="#000000">Output [10]</text>
</g>
<!-- x1 -->
<g id="node1" class="node">
<title>x1</title>
<ellipse fill="#fcf9f4" stroke="#660000" cx="34" cy="-154" rx="18" ry="18"/>
</g>
<!-- O1 -->
<g id="node9" class="node">
<title>O1</title>
<ellipse fill="#fcf9f4" stroke="#006600" cx="229" cy="-134" rx="18" ry="18"/>
</g>
<!-- x1&#45;&gt;O1 -->
<g id="edge1" class="edge">
<title>x1&#45;&gt;O1</title>
<path fill="none" stroke="#666666" d="M51.9956,-152.1543C86.8221,-148.5823 163.5238,-140.7155 203.5541,-136.6098"/>
<polygon fill="#666666" stroke="#666666" points="203.8549,-139.2178 211.0479,-135.8412 203.3192,-133.9952 203.8549,-139.2178"/>
</g>
<!-- O2 -->
<g id="node10" class="node">
<title>O2</title>
<ellipse fill="#fcf9f4" stroke="#006600" cx="229" cy="-214" rx="18" ry="18"/>
</g>
<!-- x1&#45;&gt;O2 -->
<g id="edge2" class="edge">
<title>x1&#45;&gt;O2</title>
<path fill="none" stroke="#666666" d="M51.3049,-159.3246C85.9968,-169.999 164.1502,-194.0462 204.2462,-206.3835"/>
<polygon fill="#666666" stroke="#666666" points="203.7935,-208.9905 211.7338,-208.6873 205.3375,-203.9727 203.7935,-208.9905"/>
</g>
<!-- O3 -->
<g id="node11" class="node">
<title>O3</title>
<ellipse fill="#fcf9f4" stroke="#006600" cx="229" cy="-174" rx="18" ry="18"/>
</g>
<!-- x1&#45;&gt;O3 -->
<g id="edge3" class="edge">
<title>x1&#45;&gt;O3</title>
<path fill="none" stroke="#666666" d="M51.9956,-155.8457C86.8221,-159.4177 163.5238,-167.2845 203.5541,-171.3902"/>
<polygon fill="#666666" stroke="#666666" points="203.3192,-174.0048 211.0479,-172.1588 203.8549,-168.7822 203.3192,-174.0048"/>
</g>
<!-- x2 -->
<g id="node2" class="node">
<title>x2</title>
<ellipse fill="#fcf9f4" stroke="#660000" cx="34" cy="-114" rx="18" ry="18"/>
</g>
<!-- x2&#45;&gt;O1 -->
<g id="edge4" class="edge">
<title>x2&#45;&gt;O1</title>
<path fill="none" stroke="#666666" d="M51.9956,-115.8457C86.8221,-119.4177 163.5238,-127.2845 203.5541,-131.3902"/>
<polygon fill="#666666" stroke="#666666" points="203.3192,-134.0048 211.0479,-132.1588 203.8549,-128.7822 203.3192,-134.0048"/>
</g>
<!-- x2&#45;&gt;O2 -->
<g id="edge5" class="edge">
<title>x2&#45;&gt;O2</title>
<path fill="none" stroke="#666666" d="M50.2902,-122.3539C84.9314,-140.1187 165.9995,-181.6921 205.9355,-202.1721"/>
<polygon fill="#666666" stroke="#666666" points="205.0218,-204.6535 212.8933,-205.7402 207.4175,-199.982 205.0218,-204.6535"/>
</g>
<!-- x2&#45;&gt;O3 -->
<g id="edge6" class="edge">
<title>x2&#45;&gt;O3</title>
<path fill="none" stroke="#666666" d="M51.3049,-119.3246C85.9968,-129.999 164.1502,-154.0462 204.2462,-166.3835"/>
<polygon fill="#666666" stroke="#666666" points="203.7935,-168.9905 211.7338,-168.6873 205.3375,-163.9727 203.7935,-168.9905"/>
</g>
<!-- x3 -->
<g id="node3" class="node">
<title>x3</title>
<ellipse fill="#fcf9f4" stroke="#660000" cx="34" cy="-74" rx="18" ry="18"/>
</g>
<!-- x3&#45;&gt;O1 -->
<g id="edge7" class="edge">
<title>x3&#45;&gt;O1</title>
<path fill="none" stroke="#666666" d="M51.3049,-79.3246C85.9968,-89.999 164.1502,-114.0462 204.2462,-126.3835"/>
<polygon fill="#666666" stroke="#666666" points="203.7935,-128.9905 211.7338,-128.6873 205.3375,-123.9727 203.7935,-128.9905"/>
</g>
<!-- x3&#45;&gt;O2 -->
<g id="edge8" class="edge">
<title>x3&#45;&gt;O2</title>
<path fill="none" stroke="#666666" d="M48.6567,-84.5228C82.8183,-109.049 167.849,-170.0967 207.7246,-198.7254"/>
<polygon fill="#666666" stroke="#666666" points="206.5499,-201.1134 214.1732,-203.3551 209.6117,-196.8487 206.5499,-201.1134"/>
</g>
<!-- x3&#45;&gt;O3 -->
<g id="edge9" class="edge">
<title>x3&#45;&gt;O3</title>
<path fill="none" stroke="#666666" d="M50.2902,-82.3539C84.9314,-100.1187 165.9995,-141.6921 205.9355,-162.1721"/>
<polygon fill="#666666" stroke="#666666" points="205.0218,-164.6535 212.8933,-165.7402 207.4175,-159.982 205.0218,-164.6535"/>
</g>
<!-- x4 -->
<g id="node4" class="node">
<title>x4</title>
<ellipse fill="#fcf9f4" stroke="#660000" cx="34" cy="-34" rx="18" ry="18"/>
</g>
<!-- x4&#45;&gt;O1 -->
<g id="edge10" class="edge">
<title>x4&#45;&gt;O1</title>
<path fill="none" stroke="#666666" d="M50.2902,-42.3539C84.9314,-60.1187 165.9995,-101.6921 205.9355,-122.1721"/>
<polygon fill="#666666" stroke="#666666" points="205.0218,-124.6535 212.8933,-125.7402 207.4175,-119.982 205.0218,-124.6535"/>
</g>
<!-- x4&#45;&gt;O2 -->
<g id="edge11" class="edge">
<title>x4&#45;&gt;O2</title>
<path fill="none" stroke="#666666" d="M47.4031,-46.3721C81.2993,-77.6609 170.5342,-160.0315 209.8891,-196.3592"/>
<polygon fill="#666666" stroke="#666666" points="208.4694,-198.621 215.7609,-201.7793 212.0304,-194.7633 208.4694,-198.621"/>
</g>
<!-- x4&#45;&gt;O3 -->
<g id="edge12" class="edge">
<title>x4&#45;&gt;O3</title>
<path fill="none" stroke="#666666" d="M48.6567,-44.5228C82.8183,-69.049 167.849,-130.0967 207.7246,-158.7254"/>
<polygon fill="#666666" stroke="#666666" points="206.5499,-161.1134 214.1732,-163.3551 209.6117,-156.8487 206.5499,-161.1134"/>
</g>
<!-- x5 -->
<g id="node5" class="node">
<title>x5</title>
<ellipse fill="#fcf9f4" stroke="#660000" cx="34" cy="-314" rx="18" ry="18"/>
</g>
<!-- x5&#45;&gt;O1 -->
<g id="edge13" class="edge">
<title>x5&#45;&gt;O1</title>
<path fill="none" stroke="#666666" d="M47.4031,-301.6279C81.2993,-270.3391 170.5342,-187.9685 209.8891,-151.6408"/>
<polygon fill="#666666" stroke="#666666" points="212.0304,-153.2367 215.7609,-146.2207 208.4694,-149.379 212.0304,-153.2367"/>
</g>
<!-- x5&#45;&gt;O2 -->
<g id="edge14" class="edge">
<title>x5&#45;&gt;O2</title>
<path fill="none" stroke="#666666" d="M50.2902,-305.6461C84.9314,-287.8813 165.9995,-246.3079 205.9355,-225.8279"/>
<polygon fill="#666666" stroke="#666666" points="207.4175,-228.018 212.8933,-222.2598 205.0218,-223.3465 207.4175,-228.018"/>
</g>
<!-- x5&#45;&gt;O3 -->
<g id="edge15" class="edge">
<title>x5&#45;&gt;O3</title>
<path fill="none" stroke="#666666" d="M48.6567,-303.4772C82.8183,-278.951 167.849,-217.9033 207.7246,-189.2746"/>
<polygon fill="#666666" stroke="#666666" points="209.6117,-191.1513 214.1732,-184.6449 206.5499,-186.8866 209.6117,-191.1513"/>
</g>
<!-- x6 -->
<g id="node6" class="node">
<title>x6</title>
<ellipse fill="#fcf9f4" stroke="#660000" cx="34" cy="-274" rx="18" ry="18"/>
</g>
<!-- x6&#45;&gt;O1 -->
<g id="edge16" class="edge">
<title>x6&#45;&gt;O1</title>
<path fill="none" stroke="#666666" d="M48.6567,-263.4772C82.8183,-238.951 167.849,-177.9033 207.7246,-149.2746"/>
<polygon fill="#666666" stroke="#666666" points="209.6117,-151.1513 214.1732,-144.6449 206.5499,-146.8866 209.6117,-151.1513"/>
</g>
<!-- x6&#45;&gt;O2 -->
<g id="edge17" class="edge">
<title>x6&#45;&gt;O2</title>
<path fill="none" stroke="#666666" d="M51.3049,-268.6754C85.9968,-258.001 164.1502,-233.9538 204.2462,-221.6165"/>
<polygon fill="#666666" stroke="#666666" points="205.3375,-224.0273 211.7338,-219.3127 203.7935,-219.0095 205.3375,-224.0273"/>
</g>
<!-- x6&#45;&gt;O3 -->
<g id="edge18" class="edge">
<title>x6&#45;&gt;O3</title>
<path fill="none" stroke="#666666" d="M50.2902,-265.6461C84.9314,-247.8813 165.9995,-206.3079 205.9355,-185.8279"/>
<polygon fill="#666666" stroke="#666666" points="207.4175,-188.018 212.8933,-182.2598 205.0218,-183.3465 207.4175,-188.018"/>
</g>
<!-- x7 -->
<g id="node7" class="node">
<title>x7</title>
<ellipse fill="#fcf9f4" stroke="#660000" cx="34" cy="-234" rx="18" ry="18"/>
</g>
<!-- x7&#45;&gt;O1 -->
<g id="edge19" class="edge">
<title>x7&#45;&gt;O1</title>
<path fill="none" stroke="#666666" d="M50.2902,-225.6461C84.9314,-207.8813 165.9995,-166.3079 205.9355,-145.8279"/>
<polygon fill="#666666" stroke="#666666" points="207.4175,-148.018 212.8933,-142.2598 205.0218,-143.3465 207.4175,-148.018"/>
</g>
<!-- x7&#45;&gt;O2 -->
<g id="edge20" class="edge">
<title>x7&#45;&gt;O2</title>
<path fill="none" stroke="#666666" d="M51.9956,-232.1543C86.8221,-228.5823 163.5238,-220.7155 203.5541,-216.6098"/>
<polygon fill="#666666" stroke="#666666" points="203.8549,-219.2178 211.0479,-215.8412 203.3192,-213.9952 203.8549,-219.2178"/>
</g>
<!-- x7&#45;&gt;O3 -->
<g id="edge21" class="edge">
<title>x7&#45;&gt;O3</title>
<path fill="none" stroke="#666666" d="M51.3049,-228.6754C85.9968,-218.001 164.1502,-193.9538 204.2462,-181.6165"/>
<polygon fill="#666666" stroke="#666666" points="205.3375,-184.0273 211.7338,-179.3127 203.7935,-179.0095 205.3375,-184.0273"/>
</g>
<!-- x8 -->
<g id="node8" class="node">
<title>x8</title>
<ellipse fill="#fcf9f4" stroke="#660000" cx="34" cy="-194" rx="18" ry="18"/>
</g>
<!-- x8&#45;&gt;O1 -->
<g id="edge22" class="edge">
<title>x8&#45;&gt;O1</title>
<path fill="none" stroke="#666666" d="M51.3049,-188.6754C85.9968,-178.001 164.1502,-153.9538 204.2462,-141.6165"/>
<polygon fill="#666666" stroke="#666666" points="205.3375,-144.0273 211.7338,-139.3127 203.7935,-139.0095 205.3375,-144.0273"/>
</g>
<!-- x8&#45;&gt;O2 -->
<g id="edge23" class="edge">
<title>x8&#45;&gt;O2</title>
<path fill="none" stroke="#666666" d="M51.9956,-195.8457C86.8221,-199.4177 163.5238,-207.2845 203.5541,-211.3902"/>
<polygon fill="#666666" stroke="#666666" points="203.3192,-214.0048 211.0479,-212.1588 203.8549,-208.7822 203.3192,-214.0048"/>
</g>
<!-- x8&#45;&gt;O3 -->
<g id="edge24" class="edge">
<title>x8&#45;&gt;O3</title>
<path fill="none" stroke="#666666" d="M51.9956,-192.1543C86.8221,-188.5823 163.5238,-180.7155 203.5541,-176.6098"/>
<polygon fill="#666666" stroke="#666666" points="203.8549,-179.2178 211.0479,-175.8412 203.3192,-173.9952 203.8549,-179.2178"/>
</g>
</g>
</svg>
