<?xml version="1.0" encoding="UTF-8" standalone="no"?>
<!DOCTYPE svg PUBLIC "-//W3C//DTD SVG 1.1//EN"
 "http://www.w3.org/Graphics/SVG/1.1/DTD/svg11.dtd">
<!-- Generated by graphviz version 2.40.1 (20161225.0304)
 -->
<!-- Title: G Pages: 1 -->
<svg width="751pt" height="376pt"
 viewBox="0.00 0.00 751.00 376.00" xmlns="http://www.w3.org/2000/svg" xmlns:xlink="http://www.w3.org/1999/xlink">
<g id="graph0" class="graph" transform="scale(1 1) rotate(0) translate(4 372)">
<title>G</title>
<g id="clust1" class="cluster">
<title>cluster_0</title>
<polygon fill="#f4cccc" stroke="#f4cccc" points="1,-8 1,-360 67,-360 67,-8 1,-8"/>
<text text-anchor="middle" x="34" y="-347.2" font-family="Times,serif" font-size="11.00" fill="#000000">Input [784]</text>
</g>
<g id="clust2" class="cluster">
<title>cluster_1</title>
<polygon fill="#c9daf8" stroke="#c9daf8" points="195,-68 195,-300 307,-300 307,-68 195,-68"/>
<text text-anchor="middle" x="251" y="-287.2" font-family="Times,serif" font-size="11.00" fill="#000000">Hidden Layer 1 [400]</text>
</g>
<g id="clust3" class="cluster">
<title>cluster_2</title>
<polygon fill="#c9daf8" stroke="#c9daf8" points="435,-88 435,-280 547,-280 547,-88 435,-88"/>
<text text-anchor="middle" x="491" y="-267.2" font-family="Times,serif" font-size="11.00" fill="#000000">Hidden Layer 2 [100]</text>
</g>
<g id="clust4" class="cluster">
<title>cluster_3</title>
<polygon fill="#d8ead2" stroke="#d8ead2" points="675,-108 675,-260 743,-260 743,-108 675,-108"/>
<text text-anchor="middle" x="709" y="-247.2" font-family="Times,serif" font-size="11.00" fill="#000000">Output [10]</text>
</g>
<!-- x1 -->
<g id="node1" class="node">
<title>x1</title>
<ellipse fill="#ffffff" stroke="#000000" cx="34" cy="-154" rx="18" ry="18"/>
</g>
<!-- h12 -->
<g id="node9" class="node">
<title>h12</title>
<ellipse fill="#ffffff" stroke="#000000" cx="251" cy="-134" rx="18" ry="18"/>
</g>
<!-- x1&#45;&gt;h12 -->
<g id="edge1" class="edge">
<title>x1&#45;&gt;h12</title>
<path fill="none" stroke="#666666" d="M52.1281,-152.3292C90.6614,-148.7777 180.8164,-140.4685 225.2776,-136.3707"/>
<polygon fill="#666666" stroke="#666666" points="225.5435,-138.9824 232.7709,-135.6801 225.0616,-133.7546 225.5435,-138.9824"/>
</g>
<!-- h22 -->
<g id="node10" class="node">
<title>h22</title>
<ellipse fill="#ffffff" stroke="#000000" cx="251" cy="-94" rx="18" ry="18"/>
</g>
<!-- x1&#45;&gt;h22 -->
<g id="edge2" class="edge">
<title>x1&#45;&gt;h22</title>
<path fill="none" stroke="#666666" d="M51.3912,-149.1914C89.7212,-138.5932 181.5883,-113.1922 226.0516,-100.8982"/>
<polygon fill="#666666" stroke="#666666" points="226.9968,-103.3604 233.526,-98.8315 225.5976,-98.3003 226.9968,-103.3604"/>
</g>
<!-- h32 -->
<g id="node11" class="node">
<title>h32</title>
<ellipse fill="#ffffff" stroke="#000000" cx="251" cy="-254" rx="18" ry="18"/>
</g>
<!-- x1&#45;&gt;h32 -->
<g id="edge3" class="edge">
<title>x1&#45;&gt;h32</title>
<path fill="none" stroke="#666666" d="M50.6673,-161.6808C89.0238,-179.3566 183.6233,-222.9508 227.6999,-243.2626"/>
<polygon fill="#666666" stroke="#666666" points="226.6627,-245.675 234.5729,-246.4299 228.8601,-240.9069 226.6627,-245.675"/>
</g>
<!-- h42 -->
<g id="node12" class="node">
<title>h42</title>
<ellipse fill="#ffffff" stroke="#000000" cx="251" cy="-214" rx="18" ry="18"/>
</g>
<!-- x1&#45;&gt;h42 -->
<g id="edge4" class="edge">
<title>x1&#45;&gt;h42</title>
<path fill="none" stroke="#666666" d="M51.3912,-158.8086C89.7212,-169.4068 181.5883,-194.8078 226.0516,-207.1018"/>
<polygon fill="#666666" stroke="#666666" points="225.5976,-209.6997 233.526,-209.1685 226.9968,-204.6396 225.5976,-209.6997"/>
</g>
<!-- h52 -->
<g id="node13" class="node">
<title>h52</title>
<ellipse fill="#ffffff" stroke="#000000" cx="251" cy="-174" rx="18" ry="18"/>
</g>
<!-- x1&#45;&gt;h52 -->
<g id="edge5" class="edge">
<title>x1&#45;&gt;h52</title>
<path fill="none" stroke="#666666" d="M52.1281,-155.6708C90.6614,-159.2223 180.8164,-167.5315 225.2776,-171.6293"/>
<polygon fill="#666666" stroke="#666666" points="225.0616,-174.2454 232.7709,-172.3199 225.5435,-169.0176 225.0616,-174.2454"/>
</g>
<!-- x2 -->
<g id="node2" class="node">
<title>x2</title>
<ellipse fill="#ffffff" stroke="#000000" cx="34" cy="-114" rx="18" ry="18"/>
</g>
<!-- x2&#45;&gt;h12 -->
<g id="edge6" class="edge">
<title>x2&#45;&gt;h12</title>
<path fill="none" stroke="#666666" d="M52.1281,-115.6708C90.6614,-119.2223 180.8164,-127.5315 225.2776,-131.6293"/>
<polygon fill="#666666" stroke="#666666" points="225.0616,-134.2454 232.7709,-132.3199 225.5435,-129.0176 225.0616,-134.2454"/>
</g>
<!-- x2&#45;&gt;h22 -->
<g id="edge7" class="edge">
<title>x2&#45;&gt;h22</title>
<path fill="none" stroke="#666666" d="M52.1281,-112.3292C90.6614,-108.7777 180.8164,-100.4685 225.2776,-96.3707"/>
<polygon fill="#666666" stroke="#666666" points="225.5435,-98.9824 232.7709,-95.6801 225.0616,-93.7546 225.5435,-98.9824"/>
</g>
<!-- x2&#45;&gt;h32 -->
<g id="edge8" class="edge">
<title>x2&#45;&gt;h32</title>
<path fill="none" stroke="#666666" d="M49.259,-123.8445C87.0788,-148.2444 185.2564,-211.5847 229.19,-239.9291"/>
<polygon fill="#666666" stroke="#666666" points="228.0325,-242.3061 235.7578,-244.1664 230.8787,-237.8946 228.0325,-242.3061"/>
</g>
<!-- x2&#45;&gt;h42 -->
<g id="edge9" class="edge">
<title>x2&#45;&gt;h42</title>
<path fill="none" stroke="#666666" d="M50.6673,-121.6808C89.0238,-139.3566 183.6233,-182.9508 227.6999,-203.2626"/>
<polygon fill="#666666" stroke="#666666" points="226.6627,-205.675 234.5729,-206.4299 228.8601,-200.9069 226.6627,-205.675"/>
</g>
<!-- x2&#45;&gt;h52 -->
<g id="edge10" class="edge">
<title>x2&#45;&gt;h52</title>
<path fill="none" stroke="#666666" d="M51.3912,-118.8086C89.7212,-129.4068 181.5883,-154.8078 226.0516,-167.1018"/>
<polygon fill="#666666" stroke="#666666" points="225.5976,-169.6997 233.526,-169.1685 226.9968,-164.6396 225.5976,-169.6997"/>
</g>
<!-- x3 -->
<g id="node3" class="node">
<title>x3</title>
<ellipse fill="#ffffff" stroke="#000000" cx="34" cy="-74" rx="18" ry="18"/>
</g>
<!-- x3&#45;&gt;h12 -->
<g id="edge11" class="edge">
<title>x3&#45;&gt;h12</title>
<path fill="none" stroke="#666666" d="M51.3912,-78.8086C89.7212,-89.4068 181.5883,-114.8078 226.0516,-127.1018"/>
<polygon fill="#666666" stroke="#666666" points="225.5976,-129.6997 233.526,-129.1685 226.9968,-124.6396 225.5976,-129.6997"/>
</g>
<!-- x3&#45;&gt;h22 -->
<g id="edge12" class="edge">
<title>x3&#45;&gt;h22</title>
<path fill="none" stroke="#666666" d="M52.1281,-75.6708C90.6614,-79.2223 180.8164,-87.5315 225.2776,-91.6293"/>
<polygon fill="#666666" stroke="#666666" points="225.0616,-94.2454 232.7709,-92.3199 225.5435,-89.0176 225.0616,-94.2454"/>
</g>
<!-- x3&#45;&gt;h32 -->
<g id="edge13" class="edge">
<title>x3&#45;&gt;h32</title>
<path fill="none" stroke="#666666" d="M47.9044,-85.5336C85.1727,-116.4474 187.4152,-201.2568 230.9483,-237.3673"/>
<polygon fill="#666666" stroke="#666666" points="229.482,-239.5615 236.9305,-242.3295 232.8339,-235.5207 229.482,-239.5615"/>
</g>
<!-- x3&#45;&gt;h42 -->
<g id="edge14" class="edge">
<title>x3&#45;&gt;h42</title>
<path fill="none" stroke="#666666" d="M49.259,-83.8445C87.0788,-108.2444 185.2564,-171.5847 229.19,-199.9291"/>
<polygon fill="#666666" stroke="#666666" points="228.0325,-202.3061 235.7578,-204.1664 230.8787,-197.8946 228.0325,-202.3061"/>
</g>
<!-- x3&#45;&gt;h52 -->
<g id="edge15" class="edge">
<title>x3&#45;&gt;h52</title>
<path fill="none" stroke="#666666" d="M50.6673,-81.6808C89.0238,-99.3566 183.6233,-142.9508 227.6999,-163.2626"/>
<polygon fill="#666666" stroke="#666666" points="226.6627,-165.675 234.5729,-166.4299 228.8601,-160.9069 226.6627,-165.675"/>
</g>
<!-- x4 -->
<g id="node4" class="node">
<title>x4</title>
<ellipse fill="#ffffff" stroke="#000000" cx="34" cy="-34" rx="18" ry="18"/>
</g>
<!-- x4&#45;&gt;h12 -->
<g id="edge16" class="edge">
<title>x4&#45;&gt;h12</title>
<path fill="none" stroke="#666666" d="M50.6673,-41.6808C89.0238,-59.3566 183.6233,-102.9508 227.6999,-123.2626"/>
<polygon fill="#666666" stroke="#666666" points="226.6627,-125.675 234.5729,-126.4299 228.8601,-120.9069 226.6627,-125.675"/>
</g>
<!-- x4&#45;&gt;h22 -->
<g id="edge17" class="edge">
<title>x4&#45;&gt;h22</title>
<path fill="none" stroke="#666666" d="M51.3912,-38.8086C89.7212,-49.4068 181.5883,-74.8078 226.0516,-87.1018"/>
<polygon fill="#666666" stroke="#666666" points="225.5976,-89.6997 233.526,-89.1685 226.9968,-84.6396 225.5976,-89.6997"/>
</g>
<!-- x4&#45;&gt;h32 -->
<g id="edge18" class="edge">
<title>x4&#45;&gt;h32</title>
<path fill="none" stroke="#666666" d="M46.9245,-47.1032C83.8616,-84.5509 189.9688,-192.1251 232.7726,-235.5207"/>
<polygon fill="#666666" stroke="#666666" points="231.0076,-237.4693 238.1432,-240.9655 234.7453,-233.7825 231.0076,-237.4693"/>
</g>
<!-- x4&#45;&gt;h42 -->
<g id="edge19" class="edge">
<title>x4&#45;&gt;h42</title>
<path fill="none" stroke="#666666" d="M47.9044,-45.5336C85.1727,-76.4474 187.4152,-161.2568 230.9483,-197.3673"/>
<polygon fill="#666666" stroke="#666666" points="229.482,-199.5615 236.9305,-202.3295 232.8339,-195.5207 229.482,-199.5615"/>
</g>
<!-- x4&#45;&gt;h52 -->
<g id="edge20" class="edge">
<title>x4&#45;&gt;h52</title>
<path fill="none" stroke="#666666" d="M49.259,-43.8445C87.0788,-68.2444 185.2564,-131.5847 229.19,-159.9291"/>
<polygon fill="#666666" stroke="#666666" points="228.0325,-162.3061 235.7578,-164.1664 230.8787,-157.8946 228.0325,-162.3061"/>
</g>
<!-- x5 -->
<g id="node5" class="node">
<title>x5</title>
<ellipse fill="#ffffff" stroke="#000000" cx="34" cy="-314" rx="18" ry="18"/>
</g>
<!-- x5&#45;&gt;h12 -->
<g id="edge21" class="edge">
<title>x5&#45;&gt;h12</title>
<path fill="none" stroke="#666666" d="M47.9044,-302.4664C85.1727,-271.5526 187.4152,-186.7432 230.9483,-150.6327"/>
<polygon fill="#666666" stroke="#666666" points="232.8339,-152.4793 236.9305,-145.6705 229.482,-148.4385 232.8339,-152.4793"/>
</g>
<!-- x5&#45;&gt;h22 -->
<g id="edge22" class="edge">
<title>x5&#45;&gt;h22</title>
<path fill="none" stroke="#666666" d="M46.9245,-300.8968C83.8616,-263.4491 189.9688,-155.8749 232.7726,-112.4793"/>
<polygon fill="#666666" stroke="#666666" points="234.7453,-114.2175 238.1432,-107.0345 231.0076,-110.5307 234.7453,-114.2175"/>
</g>
<!-- x5&#45;&gt;h32 -->
<g id="edge23" class="edge">
<title>x5&#45;&gt;h32</title>
<path fill="none" stroke="#666666" d="M51.3912,-309.1914C89.7212,-298.5932 181.5883,-273.1922 226.0516,-260.8982"/>
<polygon fill="#666666" stroke="#666666" points="226.9968,-263.3604 233.526,-258.8315 225.5976,-258.3003 226.9968,-263.3604"/>
</g>
<!-- x5&#45;&gt;h42 -->
<g id="edge24" class="edge">
<title>x5&#45;&gt;h42</title>
<path fill="none" stroke="#666666" d="M50.6673,-306.3192C89.0238,-288.6434 183.6233,-245.0492 227.6999,-224.7374"/>
<polygon fill="#666666" stroke="#666666" points="228.8601,-227.0931 234.5729,-221.5701 226.6627,-222.325 228.8601,-227.0931"/>
</g>
<!-- x5&#45;&gt;h52 -->
<g id="edge25" class="edge">
<title>x5&#45;&gt;h52</title>
<path fill="none" stroke="#666666" d="M49.259,-304.1555C87.0788,-279.7556 185.2564,-216.4153 229.19,-188.0709"/>
<polygon fill="#666666" stroke="#666666" points="230.8787,-190.1054 235.7578,-183.8336 228.0325,-185.6939 230.8787,-190.1054"/>
</g>
<!-- x6 -->
<g id="node6" class="node">
<title>x6</title>
<ellipse fill="#ffffff" stroke="#000000" cx="34" cy="-274" rx="18" ry="18"/>
</g>
<!-- x6&#45;&gt;h12 -->
<g id="edge26" class="edge">
<title>x6&#45;&gt;h12</title>
<path fill="none" stroke="#666666" d="M49.259,-264.1555C87.0788,-239.7556 185.2564,-176.4153 229.19,-148.0709"/>
<polygon fill="#666666" stroke="#666666" points="230.8787,-150.1054 235.7578,-143.8336 228.0325,-145.6939 230.8787,-150.1054"/>
</g>
<!-- x6&#45;&gt;h22 -->
<g id="edge27" class="edge">
<title>x6&#45;&gt;h22</title>
<path fill="none" stroke="#666666" d="M47.9044,-262.4664C85.1727,-231.5526 187.4152,-146.7432 230.9483,-110.6327"/>
<polygon fill="#666666" stroke="#666666" points="232.8339,-112.4793 236.9305,-105.6705 229.482,-108.4385 232.8339,-112.4793"/>
</g>
<!-- x6&#45;&gt;h32 -->
<g id="edge28" class="edge">
<title>x6&#45;&gt;h32</title>
<path fill="none" stroke="#666666" d="M52.1281,-272.3292C90.6614,-268.7777 180.8164,-260.4685 225.2776,-256.3707"/>
<polygon fill="#666666" stroke="#666666" points="225.5435,-258.9824 232.7709,-255.6801 225.0616,-253.7546 225.5435,-258.9824"/>
</g>
<!-- x6&#45;&gt;h42 -->
<g id="edge29" class="edge">
<title>x6&#45;&gt;h42</title>
<path fill="none" stroke="#666666" d="M51.3912,-269.1914C89.7212,-258.5932 181.5883,-233.1922 226.0516,-220.8982"/>
<polygon fill="#666666" stroke="#666666" points="226.9968,-223.3604 233.526,-218.8315 225.5976,-218.3003 226.9968,-223.3604"/>
</g>
<!-- x6&#45;&gt;h52 -->
<g id="edge30" class="edge">
<title>x6&#45;&gt;h52</title>
<path fill="none" stroke="#666666" d="M50.6673,-266.3192C89.0238,-248.6434 183.6233,-205.0492 227.6999,-184.7374"/>
<polygon fill="#666666" stroke="#666666" points="228.8601,-187.0931 234.5729,-181.5701 226.6627,-182.325 228.8601,-187.0931"/>
</g>
<!-- x7 -->
<g id="node7" class="node">
<title>x7</title>
<ellipse fill="#ffffff" stroke="#000000" cx="34" cy="-234" rx="18" ry="18"/>
</g>
<!-- x7&#45;&gt;h12 -->
<g id="edge31" class="edge">
<title>x7&#45;&gt;h12</title>
<path fill="none" stroke="#666666" d="M50.6673,-226.3192C89.0238,-208.6434 183.6233,-165.0492 227.6999,-144.7374"/>
<polygon fill="#666666" stroke="#666666" points="228.8601,-147.0931 234.5729,-141.5701 226.6627,-142.325 228.8601,-147.0931"/>
</g>
<!-- x7&#45;&gt;h22 -->
<g id="edge32" class="edge">
<title>x7&#45;&gt;h22</title>
<path fill="none" stroke="#666666" d="M49.259,-224.1555C87.0788,-199.7556 185.2564,-136.4153 229.19,-108.0709"/>
<polygon fill="#666666" stroke="#666666" points="230.8787,-110.1054 235.7578,-103.8336 228.0325,-105.6939 230.8787,-110.1054"/>
</g>
<!-- x7&#45;&gt;h32 -->
<g id="edge33" class="edge">
<title>x7&#45;&gt;h32</title>
<path fill="none" stroke="#666666" d="M52.1281,-235.6708C90.6614,-239.2223 180.8164,-247.5315 225.2776,-251.6293"/>
<polygon fill="#666666" stroke="#666666" points="225.0616,-254.2454 232.7709,-252.3199 225.5435,-249.0176 225.0616,-254.2454"/>
</g>
<!-- x7&#45;&gt;h42 -->
<g id="edge34" class="edge">
<title>x7&#45;&gt;h42</title>
<path fill="none" stroke="#666666" d="M52.1281,-232.3292C90.6614,-228.7777 180.8164,-220.4685 225.2776,-216.3707"/>
<polygon fill="#666666" stroke="#666666" points="225.5435,-218.9824 232.7709,-215.6801 225.0616,-213.7546 225.5435,-218.9824"/>
</g>
<!-- x7&#45;&gt;h52 -->
<g id="edge35" class="edge">
<title>x7&#45;&gt;h52</title>
<path fill="none" stroke="#666666" d="M51.3912,-229.1914C89.7212,-218.5932 181.5883,-193.1922 226.0516,-180.8982"/>
<polygon fill="#666666" stroke="#666666" points="226.9968,-183.3604 233.526,-178.8315 225.5976,-178.3003 226.9968,-183.3604"/>
</g>
<!-- x8 -->
<g id="node8" class="node">
<title>x8</title>
<ellipse fill="#ffffff" stroke="#000000" cx="34" cy="-194" rx="18" ry="18"/>
</g>
<!-- x8&#45;&gt;h12 -->
<g id="edge36" class="edge">
<title>x8&#45;&gt;h12</title>
<path fill="none" stroke="#666666" d="M51.3912,-189.1914C89.7212,-178.5932 181.5883,-153.1922 226.0516,-140.8982"/>
<polygon fill="#666666" stroke="#666666" points="226.9968,-143.3604 233.526,-138.8315 225.5976,-138.3003 226.9968,-143.3604"/>
</g>
<!-- x8&#45;&gt;h22 -->
<g id="edge37" class="edge">
<title>x8&#45;&gt;h22</title>
<path fill="none" stroke="#666666" d="M50.6673,-186.3192C89.0238,-168.6434 183.6233,-125.0492 227.6999,-104.7374"/>
<polygon fill="#666666" stroke="#666666" points="228.8601,-107.0931 234.5729,-101.5701 226.6627,-102.325 228.8601,-107.0931"/>
</g>
<!-- x8&#45;&gt;h32 -->
<g id="edge38" class="edge">
<title>x8&#45;&gt;h32</title>
<path fill="none" stroke="#666666" d="M51.3912,-198.8086C89.7212,-209.4068 181.5883,-234.8078 226.0516,-247.1018"/>
<polygon fill="#666666" stroke="#666666" points="225.5976,-249.6997 233.526,-249.1685 226.9968,-244.6396 225.5976,-249.6997"/>
</g>
<!-- x8&#45;&gt;h42 -->
<g id="edge39" class="edge">
<title>x8&#45;&gt;h42</title>
<path fill="none" stroke="#666666" d="M52.1281,-195.6708C90.6614,-199.2223 180.8164,-207.5315 225.2776,-211.6293"/>
<polygon fill="#666666" stroke="#666666" points="225.0616,-214.2454 232.7709,-212.3199 225.5435,-209.0176 225.0616,-214.2454"/>
</g>
<!-- x8&#45;&gt;h52 -->
<g id="edge40" class="edge">
<title>x8&#45;&gt;h52</title>
<path fill="none" stroke="#666666" d="M52.1281,-192.3292C90.6614,-188.7777 180.8164,-180.4685 225.2776,-176.3707"/>
<polygon fill="#666666" stroke="#666666" points="225.5435,-178.9824 232.7709,-175.6801 225.0616,-173.7546 225.5435,-178.9824"/>
</g>
<!-- h13 -->
<g id="node14" class="node">
<title>h13</title>
<ellipse fill="#ffffff" stroke="#000000" cx="491" cy="-234" rx="18" ry="18"/>
</g>
<!-- h12&#45;&gt;h13 -->
<g id="edge41" class="edge">
<title>h12&#45;&gt;h13</title>
<path fill="none" stroke="#666666" d="M267.8763,-141.0318C309.7907,-158.4961 418.7353,-203.8897 467.1776,-224.074"/>
<polygon fill="#666666" stroke="#666666" points="466.2096,-226.5144 474.1423,-226.976 468.2289,-221.6682 466.2096,-226.5144"/>
</g>
<!-- h23 -->
<g id="node15" class="node">
<title>h23</title>
<ellipse fill="#ffffff" stroke="#000000" cx="491" cy="-194" rx="18" ry="18"/>
</g>
<!-- h12&#45;&gt;h23 -->
<g id="edge46" class="edge">
<title>h12&#45;&gt;h23</title>
<path fill="none" stroke="#666666" d="M268.6478,-138.4119C310.7773,-148.9443 417.3302,-175.5825 466.0264,-187.7566"/>
<polygon fill="#666666" stroke="#666666" points="465.4136,-190.3091 473.3264,-189.5816 466.687,-185.2159 465.4136,-190.3091"/>
</g>
<!-- h33 -->
<g id="node16" class="node">
<title>h33</title>
<ellipse fill="#ffffff" stroke="#000000" cx="491" cy="-154" rx="18" ry="18"/>
</g>
<!-- h12&#45;&gt;h33 -->
<g id="edge51" class="edge">
<title>h12&#45;&gt;h33</title>
<path fill="none" stroke="#666666" d="M269.039,-135.5033C311.1709,-139.0142 416.1699,-147.7642 465.1184,-151.8432"/>
<polygon fill="#666666" stroke="#666666" points="465.0595,-154.4723 472.7517,-152.4793 465.4956,-149.2404 465.0595,-154.4723"/>
</g>
<!-- h43 -->
<g id="node17" class="node">
<title>h43</title>
<ellipse fill="#ffffff" stroke="#000000" cx="491" cy="-114" rx="18" ry="18"/>
</g>
<!-- h12&#45;&gt;h43 -->
<g id="edge56" class="edge">
<title>h12&#45;&gt;h43</title>
<path fill="none" stroke="#666666" d="M269.039,-132.4967C311.1709,-128.9858 416.1699,-120.2358 465.1184,-116.1568"/>
<polygon fill="#666666" stroke="#666666" points="465.4956,-118.7596 472.7517,-115.5207 465.0595,-113.5277 465.4956,-118.7596"/>
</g>
<!-- h22&#45;&gt;h13 -->
<g id="edge42" class="edge">
<title>h22&#45;&gt;h13</title>
<path fill="none" stroke="#666666" d="M266.7471,-103.1858C308.1952,-127.3639 420.4287,-192.8334 468.5728,-220.9175"/>
<polygon fill="#666666" stroke="#666666" points="467.3939,-223.2687 475.1949,-224.7804 470.0393,-218.7339 467.3939,-223.2687"/>
</g>
<!-- h22&#45;&gt;h23 -->
<g id="edge47" class="edge">
<title>h22&#45;&gt;h23</title>
<path fill="none" stroke="#666666" d="M267.8763,-101.0318C309.7907,-118.4961 418.7353,-163.8897 467.1776,-184.074"/>
<polygon fill="#666666" stroke="#666666" points="466.2096,-186.5144 474.1423,-186.976 468.2289,-181.6682 466.2096,-186.5144"/>
</g>
<!-- h22&#45;&gt;h33 -->
<g id="edge52" class="edge">
<title>h22&#45;&gt;h33</title>
<path fill="none" stroke="#666666" d="M268.6478,-98.4119C310.7773,-108.9443 417.3302,-135.5825 466.0264,-147.7566"/>
<polygon fill="#666666" stroke="#666666" points="465.4136,-150.3091 473.3264,-149.5816 466.687,-145.2159 465.4136,-150.3091"/>
</g>
<!-- h22&#45;&gt;h43 -->
<g id="edge57" class="edge">
<title>h22&#45;&gt;h43</title>
<path fill="none" stroke="#666666" d="M269.039,-95.5033C311.1709,-99.0142 416.1699,-107.7642 465.1184,-111.8432"/>
<polygon fill="#666666" stroke="#666666" points="465.0595,-114.4723 472.7517,-112.4793 465.4956,-109.2404 465.0595,-114.4723"/>
</g>
<!-- h32&#45;&gt;h13 -->
<g id="edge43" class="edge">
<title>h32&#45;&gt;h13</title>
<path fill="none" stroke="#666666" d="M269.039,-252.4967C311.1709,-248.9858 416.1699,-240.2358 465.1184,-236.1568"/>
<polygon fill="#666666" stroke="#666666" points="465.4956,-238.7596 472.7517,-235.5207 465.0595,-233.5277 465.4956,-238.7596"/>
</g>
<!-- h32&#45;&gt;h23 -->
<g id="edge48" class="edge">
<title>h32&#45;&gt;h23</title>
<path fill="none" stroke="#666666" d="M268.6478,-249.5881C310.7773,-239.0557 417.3302,-212.4175 466.0264,-200.2434"/>
<polygon fill="#666666" stroke="#666666" points="466.687,-202.7841 473.3264,-198.4184 465.4136,-197.6909 466.687,-202.7841"/>
</g>
<!-- h32&#45;&gt;h33 -->
<g id="edge53" class="edge">
<title>h32&#45;&gt;h33</title>
<path fill="none" stroke="#666666" d="M267.8763,-246.9682C309.7907,-229.5039 418.7353,-184.1103 467.1776,-163.926"/>
<polygon fill="#666666" stroke="#666666" points="468.2289,-166.3318 474.1423,-161.024 466.2096,-161.4856 468.2289,-166.3318"/>
</g>
<!-- h32&#45;&gt;h43 -->
<g id="edge58" class="edge">
<title>h32&#45;&gt;h43</title>
<path fill="none" stroke="#666666" d="M266.7471,-244.8142C308.1952,-220.6361 420.4287,-155.1666 468.5728,-127.0825"/>
<polygon fill="#666666" stroke="#666666" points="470.0393,-129.2661 475.1949,-123.2196 467.3939,-124.7313 470.0393,-129.2661"/>
</g>
<!-- h42&#45;&gt;h13 -->
<g id="edge44" class="edge">
<title>h42&#45;&gt;h13</title>
<path fill="none" stroke="#666666" d="M269.039,-215.5033C311.1709,-219.0142 416.1699,-227.7642 465.1184,-231.8432"/>
<polygon fill="#666666" stroke="#666666" points="465.0595,-234.4723 472.7517,-232.4793 465.4956,-229.2404 465.0595,-234.4723"/>
</g>
<!-- h42&#45;&gt;h23 -->
<g id="edge49" class="edge">
<title>h42&#45;&gt;h23</title>
<path fill="none" stroke="#666666" d="M269.039,-212.4967C311.1709,-208.9858 416.1699,-200.2358 465.1184,-196.1568"/>
<polygon fill="#666666" stroke="#666666" points="465.4956,-198.7596 472.7517,-195.5207 465.0595,-193.5277 465.4956,-198.7596"/>
</g>
<!-- h42&#45;&gt;h33 -->
<g id="edge54" class="edge">
<title>h42&#45;&gt;h33</title>
<path fill="none" stroke="#666666" d="M268.6478,-209.5881C310.7773,-199.0557 417.3302,-172.4175 466.0264,-160.2434"/>
<polygon fill="#666666" stroke="#666666" points="466.687,-162.7841 473.3264,-158.4184 465.4136,-157.6909 466.687,-162.7841"/>
</g>
<!-- h42&#45;&gt;h43 -->
<g id="edge59" class="edge">
<title>h42&#45;&gt;h43</title>
<path fill="none" stroke="#666666" d="M267.8763,-206.9682C309.7907,-189.5039 418.7353,-144.1103 467.1776,-123.926"/>
<polygon fill="#666666" stroke="#666666" points="468.2289,-126.3318 474.1423,-121.024 466.2096,-121.4856 468.2289,-126.3318"/>
</g>
<!-- h52&#45;&gt;h13 -->
<g id="edge45" class="edge">
<title>h52&#45;&gt;h13</title>
<path fill="none" stroke="#666666" d="M268.6478,-178.4119C310.7773,-188.9443 417.3302,-215.5825 466.0264,-227.7566"/>
<polygon fill="#666666" stroke="#666666" points="465.4136,-230.3091 473.3264,-229.5816 466.687,-225.2159 465.4136,-230.3091"/>
</g>
<!-- h52&#45;&gt;h23 -->
<g id="edge50" class="edge">
<title>h52&#45;&gt;h23</title>
<path fill="none" stroke="#666666" d="M269.039,-175.5033C311.1709,-179.0142 416.1699,-187.7642 465.1184,-191.8432"/>
<polygon fill="#666666" stroke="#666666" points="465.0595,-194.4723 472.7517,-192.4793 465.4956,-189.2404 465.0595,-194.4723"/>
</g>
<!-- h52&#45;&gt;h33 -->
<g id="edge55" class="edge">
<title>h52&#45;&gt;h33</title>
<path fill="none" stroke="#666666" d="M269.039,-172.4967C311.1709,-168.9858 416.1699,-160.2358 465.1184,-156.1568"/>
<polygon fill="#666666" stroke="#666666" points="465.4956,-158.7596 472.7517,-155.5207 465.0595,-153.5277 465.4956,-158.7596"/>
</g>
<!-- h52&#45;&gt;h43 -->
<g id="edge60" class="edge">
<title>h52&#45;&gt;h43</title>
<path fill="none" stroke="#666666" d="M268.6478,-169.5881C310.7773,-159.0557 417.3302,-132.4175 466.0264,-120.2434"/>
<polygon fill="#666666" stroke="#666666" points="466.687,-122.7841 473.3264,-118.4184 465.4136,-117.6909 466.687,-122.7841"/>
</g>
<!-- O1 -->
<g id="node18" class="node">
<title>O1</title>
<ellipse fill="#ffffff" stroke="#000000" cx="709" cy="-134" rx="18" ry="18"/>
</g>
<!-- h13&#45;&gt;O1 -->
<g id="edge61" class="edge">
<title>h13&#45;&gt;O1</title>
<path fill="none" stroke="#666666" d="M507.3854,-226.4837C545.6552,-208.9288 641.0293,-165.1792 685.4909,-144.784"/>
<polygon fill="#666666" stroke="#666666" points="686.7019,-147.1165 692.4244,-141.6035 684.5129,-142.3446 686.7019,-147.1165"/>
</g>
<!-- O2 -->
<g id="node19" class="node">
<title>O2</title>
<ellipse fill="#ffffff" stroke="#000000" cx="709" cy="-214" rx="18" ry="18"/>
</g>
<!-- h13&#45;&gt;O2 -->
<g id="edge65" class="edge">
<title>h13&#45;&gt;O2</title>
<path fill="none" stroke="#666666" d="M509.2116,-232.3292C548.0191,-228.7689 638.945,-220.4271 683.4924,-216.3401"/>
<polygon fill="#666666" stroke="#666666" points="683.7648,-218.9513 690.9936,-215.652 683.2851,-213.7232 683.7648,-218.9513"/>
</g>
<!-- O3 -->
<g id="node20" class="node">
<title>O3</title>
<ellipse fill="#ffffff" stroke="#000000" cx="709" cy="-174" rx="18" ry="18"/>
</g>
<!-- h13&#45;&gt;O3 -->
<g id="edge69" class="edge">
<title>h13&#45;&gt;O3</title>
<path fill="none" stroke="#666666" d="M508.4713,-229.1914C547.0577,-218.5713 639.6508,-193.0869 684.2134,-180.822"/>
<polygon fill="#666666" stroke="#666666" points="684.9109,-183.3527 691.4454,-178.8315 683.5177,-178.2909 684.9109,-183.3527"/>
</g>
<!-- h23&#45;&gt;O1 -->
<g id="edge62" class="edge">
<title>h23&#45;&gt;O1</title>
<path fill="none" stroke="#666666" d="M508.4713,-189.1914C547.0577,-178.5713 639.6508,-153.0869 684.2134,-140.822"/>
<polygon fill="#666666" stroke="#666666" points="684.9109,-143.3527 691.4454,-138.8315 683.5177,-138.2909 684.9109,-143.3527"/>
</g>
<!-- h23&#45;&gt;O2 -->
<g id="edge66" class="edge">
<title>h23&#45;&gt;O2</title>
<path fill="none" stroke="#666666" d="M509.2116,-195.6708C548.0191,-199.2311 638.945,-207.5729 683.4924,-211.6599"/>
<polygon fill="#666666" stroke="#666666" points="683.2851,-214.2768 690.9936,-212.348 683.7648,-209.0487 683.2851,-214.2768"/>
</g>
<!-- h23&#45;&gt;O3 -->
<g id="edge70" class="edge">
<title>h23&#45;&gt;O3</title>
<path fill="none" stroke="#666666" d="M509.2116,-192.3292C548.0191,-188.7689 638.945,-180.4271 683.4924,-176.3401"/>
<polygon fill="#666666" stroke="#666666" points="683.7648,-178.9513 690.9936,-175.652 683.2851,-173.7232 683.7648,-178.9513"/>
</g>
<!-- h33&#45;&gt;O1 -->
<g id="edge63" class="edge">
<title>h33&#45;&gt;O1</title>
<path fill="none" stroke="#666666" d="M509.2116,-152.3292C548.0191,-148.7689 638.945,-140.4271 683.4924,-136.3401"/>
<polygon fill="#666666" stroke="#666666" points="683.7648,-138.9513 690.9936,-135.652 683.2851,-133.7232 683.7648,-138.9513"/>
</g>
<!-- h33&#45;&gt;O2 -->
<g id="edge67" class="edge">
<title>h33&#45;&gt;O2</title>
<path fill="none" stroke="#666666" d="M508.4713,-158.8086C547.0577,-169.4287 639.6508,-194.9131 684.2134,-207.178"/>
<polygon fill="#666666" stroke="#666666" points="683.5177,-209.7091 691.4454,-209.1685 684.9109,-204.6473 683.5177,-209.7091"/>
</g>
<!-- h33&#45;&gt;O3 -->
<g id="edge71" class="edge">
<title>h33&#45;&gt;O3</title>
<path fill="none" stroke="#666666" d="M509.2116,-155.6708C548.0191,-159.2311 638.945,-167.5729 683.4924,-171.6599"/>
<polygon fill="#666666" stroke="#666666" points="683.2851,-174.2768 690.9936,-172.348 683.7648,-169.0487 683.2851,-174.2768"/>
</g>
<!-- h43&#45;&gt;O1 -->
<g id="edge64" class="edge">
<title>h43&#45;&gt;O1</title>
<path fill="none" stroke="#666666" d="M509.2116,-115.6708C548.0191,-119.2311 638.945,-127.5729 683.4924,-131.6599"/>
<polygon fill="#666666" stroke="#666666" points="683.2851,-134.2768 690.9936,-132.348 683.7648,-129.0487 683.2851,-134.2768"/>
</g>
<!-- h43&#45;&gt;O2 -->
<g id="edge68" class="edge">
<title>h43&#45;&gt;O2</title>
<path fill="none" stroke="#666666" d="M507.3854,-121.5163C545.6552,-139.0712 641.0293,-182.8208 685.4909,-203.216"/>
<polygon fill="#666666" stroke="#666666" points="684.5129,-205.6554 692.4244,-206.3965 686.7019,-200.8835 684.5129,-205.6554"/>
</g>
<!-- h43&#45;&gt;O3 -->
<g id="edge72" class="edge">
<title>h43&#45;&gt;O3</title>
<path fill="none" stroke="#666666" d="M508.4713,-118.8086C547.0577,-129.4287 639.6508,-154.9131 684.2134,-167.178"/>
<polygon fill="#666666" stroke="#666666" points="683.5177,-169.7091 691.4454,-169.1685 684.9109,-164.6473 683.5177,-169.7091"/>
</g>
</g>
</svg>
