<?xml version="1.0" encoding="UTF-8" standalone="no"?>
<!DOCTYPE svg PUBLIC "-//W3C//DTD SVG 1.1//EN"
 "http://www.w3.org/Graphics/SVG/1.1/DTD/svg11.dtd">
<!-- Generated by graphviz version 9.0.0 (20230911.1827)
 -->
<!-- Title: G Pages: 1 -->
<svg width="368pt" height="194pt"
 viewBox="0.00 0.00 368.00 194.00" xmlns="http://www.w3.org/2000/svg" xmlns:xlink="http://www.w3.org/1999/xlink">
<g id="graph0" class="graph" transform="scale(1 1) rotate(0) translate(4 190)">
<title>G</title>
<g id="clust1" class="cluster">
<title>cluster_0</title>
<polygon fill="none" stroke="none" points="8,-8 8,-178 162,-178 162,-8 8,-8"/>
<text text-anchor="start" x="73.75" y="-163.55" font-family="Times,serif" font-size="11.00">Input</text>
</g>
<g id="clust2" class="cluster">
<title>cluster_1</title>
<polygon fill="none" stroke="none" points="267,-43 267,-143 352,-143 352,-43 267,-43"/>
<text text-anchor="start" x="294.5" y="-128.55" font-family="Times,serif" font-size="11.00">Output</text>
</g>
<!-- i1 -->
<g id="node1" class="node">
<title>i1</title>
<polygon fill="#f4cccc" stroke="none" points="16,-117 16,-152 53,-152 53,-117 16,-117"/>
<polygon fill="none" stroke="black" points="16,-117 16,-152 53,-152 53,-117 16,-117"/>
<text text-anchor="start" x="29.25" y="-130.55" font-family="Times,serif" font-size="11.00">12</text>
<polygon fill="#f4cccc" stroke="none" points="53,-117 53,-152 90,-152 90,-117 53,-117"/>
<polygon fill="none" stroke="black" points="53,-117 53,-152 90,-152 90,-117 53,-117"/>
<text text-anchor="start" x="66.25" y="-130.55" font-family="Times,serif" font-size="11.00">20</text>
<polygon fill="#fff2cb" stroke="none" points="90,-117 90,-152 122,-152 122,-117 90,-117"/>
<polygon fill="none" stroke="black" points="90,-117 90,-152 122,-152 122,-117 90,-117"/>
<text text-anchor="start" x="100.75" y="-130.55" font-family="Times,serif" font-size="11.00">30</text>
<polygon fill="#fff2cb" stroke="none" points="122,-117 122,-152 154,-152 154,-117 122,-117"/>
<polygon fill="none" stroke="black" points="122,-117 122,-152 154,-152 154,-117 122,-117"/>
<text text-anchor="start" x="135.38" y="-130.55" font-family="Times,serif" font-size="11.00">0</text>
<polygon fill="#f4cccc" stroke="none" points="16,-82 16,-117 53,-117 53,-82 16,-82"/>
<polygon fill="none" stroke="black" points="16,-82 16,-117 53,-117 53,-82 16,-82"/>
<text text-anchor="start" x="31.88" y="-95.55" font-family="Times,serif" font-size="11.00">8</text>
<polygon fill="#f4cccc" stroke="none" points="53,-82 53,-117 90,-117 90,-82 53,-82"/>
<polygon fill="none" stroke="black" points="53,-82 53,-117 90,-117 90,-82 53,-82"/>
<text text-anchor="start" x="66.25" y="-95.55" font-family="Times,serif" font-size="11.00">12</text>
<polygon fill="#fff2cb" stroke="none" points="90,-82 90,-117 122,-117 122,-82 90,-82"/>
<polygon fill="none" stroke="black" points="90,-82 90,-117 122,-117 122,-82 90,-82"/>
<text text-anchor="start" x="103.38" y="-95.55" font-family="Times,serif" font-size="11.00">2</text>
<polygon fill="#fff2cb" stroke="none" points="122,-82 122,-117 154,-117 154,-82 122,-82"/>
<polygon fill="none" stroke="black" points="122,-82 122,-117 154,-117 154,-82 122,-82"/>
<text text-anchor="start" x="135.38" y="-95.55" font-family="Times,serif" font-size="11.00">0</text>
<polygon fill="#c9daf8" stroke="none" points="16,-47 16,-82 53,-82 53,-47 16,-47"/>
<polygon fill="none" stroke="black" points="16,-47 16,-82 53,-82 53,-47 16,-47"/>
<text text-anchor="start" x="29.25" y="-60.55" font-family="Times,serif" font-size="11.00">34</text>
<polygon fill="#c9daf8" stroke="none" points="53,-47 53,-82 90,-82 90,-47 53,-47"/>
<polygon fill="none" stroke="black" points="53,-47 53,-82 90,-82 90,-47 53,-47"/>
<text text-anchor="start" x="66.25" y="-60.55" font-family="Times,serif" font-size="11.00">70</text>
<polygon fill="#d8ead2" stroke="none" points="90,-47 90,-82 122,-82 122,-47 90,-47"/>
<polygon fill="none" stroke="black" points="90,-47 90,-82 122,-82 122,-47 90,-47"/>
<text text-anchor="start" x="100.75" y="-60.55" font-family="Times,serif" font-size="11.00">37</text>
<polygon fill="#d8ead2" stroke="none" points="122,-47 122,-82 154,-82 154,-47 122,-47"/>
<polygon fill="none" stroke="black" points="122,-47 122,-82 154,-82 154,-47 122,-47"/>
<text text-anchor="start" x="135.38" y="-60.55" font-family="Times,serif" font-size="11.00">4</text>
<polygon fill="#c9daf8" stroke="none" points="16,-12 16,-47 53,-47 53,-12 16,-12"/>
<polygon fill="none" stroke="black" points="16,-12 16,-47 53,-47 53,-12 16,-12"/>
<text text-anchor="start" x="26.62" y="-25.55" font-family="Times,serif" font-size="11.00">112</text>
<polygon fill="#c9daf8" stroke="none" points="53,-12 53,-47 90,-47 90,-12 53,-12"/>
<polygon fill="none" stroke="black" points="53,-12 53,-47 90,-47 90,-12 53,-12"/>
<text text-anchor="start" x="63.62" y="-25.55" font-family="Times,serif" font-size="11.00">100</text>
<polygon fill="#d8ead2" stroke="none" points="90,-12 90,-47 122,-47 122,-12 90,-12"/>
<polygon fill="none" stroke="black" points="90,-12 90,-47 122,-47 122,-12 90,-12"/>
<text text-anchor="start" x="100.75" y="-25.55" font-family="Times,serif" font-size="11.00">25</text>
<polygon fill="#d8ead2" stroke="none" points="122,-12 122,-47 154,-47 154,-12 122,-12"/>
<polygon fill="none" stroke="black" points="122,-12 122,-47 154,-47 154,-12 122,-12"/>
<text text-anchor="start" x="132.75" y="-25.55" font-family="Times,serif" font-size="11.00">12</text>
</g>
<!-- o1 -->
<g id="node2" class="node">
<title>o1</title>
<polygon fill="#f4cccc" stroke="none" points="275,-82 275,-117 312,-117 312,-82 275,-82"/>
<polygon fill="none" stroke="black" points="275,-82 275,-117 312,-117 312,-82 275,-82"/>
<text text-anchor="start" x="288.25" y="-95.55" font-family="Times,serif" font-size="11.00">20</text>
<polygon fill="#fff2cb" stroke="none" points="312,-82 312,-117 344,-117 344,-82 312,-82"/>
<polygon fill="none" stroke="black" points="312,-82 312,-117 344,-117 344,-82 312,-82"/>
<text text-anchor="start" x="322.75" y="-95.55" font-family="Times,serif" font-size="11.00">30</text>
<polygon fill="#c9daf8" stroke="none" points="275,-47 275,-82 312,-82 312,-47 275,-47"/>
<polygon fill="none" stroke="black" points="275,-47 275,-82 312,-82 312,-47 275,-47"/>
<text text-anchor="start" x="285.62" y="-60.55" font-family="Times,serif" font-size="11.00">112</text>
<polygon fill="#d8ead2" stroke="none" points="312,-47 312,-82 344,-82 344,-47 312,-47"/>
<polygon fill="none" stroke="black" points="312,-47 312,-82 344,-82 344,-47 312,-47"/>
<text text-anchor="start" x="322.75" y="-60.55" font-family="Times,serif" font-size="11.00">37</text>
</g>
<!-- i1&#45;&gt;o1 -->
<g id="edge1" class="edge">
<title>i1&#45;&gt;o1</title>
<path fill="none" stroke="black" d="M161.95,-82C192.93,-82 227.99,-82 256.04,-82"/>
<polygon fill="black" stroke="black" points="255.7,-85.5 265.7,-82 255.7,-78.5 255.7,-85.5"/>
<text text-anchor="middle" x="214.5" y="-85.05" font-family="Times,serif" font-size="11.00">2 × 2 Max&#45;Pool</text>
</g>
</g>
</svg>
