<?xml version="1.0" encoding="UTF-8" standalone="no"?>
<!DOCTYPE svg PUBLIC "-//W3C//DTD SVG 1.1//EN"
 "http://www.w3.org/Graphics/SVG/1.1/DTD/svg11.dtd">
<!-- Generated by graphviz version 2.40.1 (20161225.0304)
 -->
<!-- Title: G Pages: 1 -->
<svg width="503pt" height="376pt"
 viewBox="0.00 0.00 503.00 376.00" xmlns="http://www.w3.org/2000/svg" xmlns:xlink="http://www.w3.org/1999/xlink">
<g id="graph0" class="graph" transform="scale(1 1) rotate(0) translate(4 372)">
<title>G</title>
<g id="clust1" class="cluster">
<title>cluster_0</title>
<polygon fill="#f4cccc" stroke="#f4cccc" points="1,-8 1,-360 67,-360 67,-8 1,-8"/>
<text text-anchor="middle" x="34" y="-347.2" font-family="Times,serif" font-size="11.00" fill="#000000">Input [784]</text>
</g>
<g id="clust2" class="cluster">
<title>cluster_1</title>
<polygon fill="#c9daf8" stroke="#c9daf8" points="195,-68 195,-300 299,-300 299,-68 195,-68"/>
<text text-anchor="middle" x="247" y="-287.2" font-family="Times,serif" font-size="11.00" fill="#000000">Hidden Layer [100]</text>
</g>
<g id="clust3" class="cluster">
<title>cluster_2</title>
<polygon fill="#d8ead2" stroke="#d8ead2" points="427,-108 427,-260 495,-260 495,-108 427,-108"/>
<text text-anchor="middle" x="461" y="-247.2" font-family="Times,serif" font-size="11.00" fill="#000000">Output [10]</text>
</g>
<!-- x1 -->
<g id="node1" class="node">
<title>x1</title>
<ellipse fill="#fcf9f4" stroke="#000000" cx="34" cy="-154" rx="18" ry="18"/>
</g>
<!-- h12 -->
<g id="node9" class="node">
<title>h12</title>
<ellipse fill="#fcf9f4" stroke="#000000" cx="247" cy="-134" rx="18" ry="18"/>
</g>
<!-- x1&#45;&gt;h12 -->
<g id="edge1" class="edge">
<title>x1&#45;&gt;h12</title>
<path fill="none" stroke="#666666" d="M52.1603,-152.2948C90.044,-148.7376 177.5958,-140.5168 221.2644,-136.4165"/>
<polygon fill="#666666" stroke="#666666" points="221.664,-139.0156 228.8857,-135.7009 221.1731,-133.7886 221.664,-139.0156"/>
</g>
<!-- h22 -->
<g id="node10" class="node">
<title>h22</title>
<ellipse fill="#fcf9f4" stroke="#000000" cx="247" cy="-94" rx="18" ry="18"/>
</g>
<!-- x1&#45;&gt;h22 -->
<g id="edge2" class="edge">
<title>x1&#45;&gt;h22</title>
<path fill="none" stroke="#666666" d="M51.4307,-149.0899C89.2035,-138.4497 178.7081,-113.2372 222.294,-100.9594"/>
<polygon fill="#666666" stroke="#666666" points="223.1199,-103.454 229.6272,-98.8937 221.6964,-98.4007 223.1199,-103.454"/>
</g>
<!-- h32 -->
<g id="node11" class="node">
<title>h32</title>
<ellipse fill="#fcf9f4" stroke="#000000" cx="247" cy="-254" rx="18" ry="18"/>
</g>
<!-- x1&#45;&gt;h32 -->
<g id="edge3" class="edge">
<title>x1&#45;&gt;h32</title>
<path fill="none" stroke="#666666" d="M50.3601,-161.6808C87.8398,-179.2769 180.0292,-222.5583 223.5413,-242.9865"/>
<polygon fill="#666666" stroke="#666666" points="222.6796,-245.4818 230.5842,-246.293 224.9107,-240.7295 222.6796,-245.4818"/>
</g>
<!-- h42 -->
<g id="node12" class="node">
<title>h42</title>
<ellipse fill="#fcf9f4" stroke="#000000" cx="247" cy="-214" rx="18" ry="18"/>
</g>
<!-- x1&#45;&gt;h42 -->
<g id="edge4" class="edge">
<title>x1&#45;&gt;h42</title>
<path fill="none" stroke="#666666" d="M51.4307,-158.9101C89.2035,-169.5503 178.7081,-194.7628 222.294,-207.0406"/>
<polygon fill="#666666" stroke="#666666" points="221.6964,-209.5993 229.6272,-209.1063 223.1199,-204.546 221.6964,-209.5993"/>
</g>
<!-- h52 -->
<g id="node13" class="node">
<title>h52</title>
<ellipse fill="#fcf9f4" stroke="#000000" cx="247" cy="-174" rx="18" ry="18"/>
</g>
<!-- x1&#45;&gt;h52 -->
<g id="edge5" class="edge">
<title>x1&#45;&gt;h52</title>
<path fill="none" stroke="#666666" d="M52.1603,-155.7052C90.044,-159.2624 177.5958,-167.4832 221.2644,-171.5835"/>
<polygon fill="#666666" stroke="#666666" points="221.1731,-174.2114 228.8857,-172.2991 221.664,-168.9844 221.1731,-174.2114"/>
</g>
<!-- x2 -->
<g id="node2" class="node">
<title>x2</title>
<ellipse fill="#fcf9f4" stroke="#000000" cx="34" cy="-114" rx="18" ry="18"/>
</g>
<!-- x2&#45;&gt;h12 -->
<g id="edge6" class="edge">
<title>x2&#45;&gt;h12</title>
<path fill="none" stroke="#666666" d="M52.1603,-115.7052C90.044,-119.2624 177.5958,-127.4832 221.2644,-131.5835"/>
<polygon fill="#666666" stroke="#666666" points="221.1731,-134.2114 228.8857,-132.2991 221.664,-128.9844 221.1731,-134.2114"/>
</g>
<!-- x2&#45;&gt;h22 -->
<g id="edge7" class="edge">
<title>x2&#45;&gt;h22</title>
<path fill="none" stroke="#666666" d="M52.1603,-112.2948C90.044,-108.7376 177.5958,-100.5168 221.2644,-96.4165"/>
<polygon fill="#666666" stroke="#666666" points="221.664,-99.0156 228.8857,-95.7009 221.1731,-93.7886 221.664,-99.0156"/>
</g>
<!-- x2&#45;&gt;h32 -->
<g id="edge8" class="edge">
<title>x2&#45;&gt;h32</title>
<path fill="none" stroke="#666666" d="M49.3184,-124.0685C86.6228,-148.5878 182.2721,-211.4559 225.3714,-239.784"/>
<polygon fill="#666666" stroke="#666666" points="224.1111,-242.0969 231.8204,-244.0228 226.9948,-237.7097 224.1111,-242.0969"/>
</g>
<!-- x2&#45;&gt;h42 -->
<g id="edge9" class="edge">
<title>x2&#45;&gt;h42</title>
<path fill="none" stroke="#666666" d="M50.3601,-121.6808C87.8398,-139.2769 180.0292,-182.5583 223.5413,-202.9865"/>
<polygon fill="#666666" stroke="#666666" points="222.6796,-205.4818 230.5842,-206.293 224.9107,-200.7295 222.6796,-205.4818"/>
</g>
<!-- x2&#45;&gt;h52 -->
<g id="edge10" class="edge">
<title>x2&#45;&gt;h52</title>
<path fill="none" stroke="#666666" d="M51.4307,-118.9101C89.2035,-129.5503 178.7081,-154.7628 222.294,-167.0406"/>
<polygon fill="#666666" stroke="#666666" points="221.6964,-169.5993 229.6272,-169.1063 223.1199,-164.546 221.6964,-169.5993"/>
</g>
<!-- x3 -->
<g id="node3" class="node">
<title>x3</title>
<ellipse fill="#fcf9f4" stroke="#000000" cx="34" cy="-74" rx="18" ry="18"/>
</g>
<!-- x3&#45;&gt;h12 -->
<g id="edge11" class="edge">
<title>x3&#45;&gt;h12</title>
<path fill="none" stroke="#666666" d="M51.4307,-78.9101C89.2035,-89.5503 178.7081,-114.7628 222.294,-127.0406"/>
<polygon fill="#666666" stroke="#666666" points="221.6964,-129.5993 229.6272,-129.1063 223.1199,-124.546 221.6964,-129.5993"/>
</g>
<!-- x3&#45;&gt;h22 -->
<g id="edge12" class="edge">
<title>x3&#45;&gt;h22</title>
<path fill="none" stroke="#666666" d="M52.1603,-75.7052C90.044,-79.2624 177.5958,-87.4832 221.2644,-91.5835"/>
<polygon fill="#666666" stroke="#666666" points="221.1731,-94.2114 228.8857,-92.2991 221.664,-88.9844 221.1731,-94.2114"/>
</g>
<!-- x3&#45;&gt;h32 -->
<g id="edge13" class="edge">
<title>x3&#45;&gt;h32</title>
<path fill="none" stroke="#666666" d="M47.9755,-85.8103C84.8489,-116.9709 184.846,-201.4755 227.4023,-237.4385"/>
<polygon fill="#666666" stroke="#666666" points="225.8271,-239.5442 233.2499,-242.3802 229.2158,-235.5343 225.8271,-239.5442"/>
</g>
<!-- x3&#45;&gt;h42 -->
<g id="edge14" class="edge">
<title>x3&#45;&gt;h42</title>
<path fill="none" stroke="#666666" d="M49.3184,-84.0685C86.6228,-108.5878 182.2721,-171.4559 225.3714,-199.784"/>
<polygon fill="#666666" stroke="#666666" points="224.1111,-202.0969 231.8204,-204.0228 226.9948,-197.7097 224.1111,-202.0969"/>
</g>
<!-- x3&#45;&gt;h52 -->
<g id="edge15" class="edge">
<title>x3&#45;&gt;h52</title>
<path fill="none" stroke="#666666" d="M50.3601,-81.6808C87.8398,-99.2769 180.0292,-142.5583 223.5413,-162.9865"/>
<polygon fill="#666666" stroke="#666666" points="222.6796,-165.4818 230.5842,-166.293 224.9107,-160.7295 222.6796,-165.4818"/>
</g>
<!-- x4 -->
<g id="node4" class="node">
<title>x4</title>
<ellipse fill="#fcf9f4" stroke="#000000" cx="34" cy="-34" rx="18" ry="18"/>
</g>
<!-- x4&#45;&gt;h12 -->
<g id="edge16" class="edge">
<title>x4&#45;&gt;h12</title>
<path fill="none" stroke="#666666" d="M50.3601,-41.6808C87.8398,-59.2769 180.0292,-102.5583 223.5413,-122.9865"/>
<polygon fill="#666666" stroke="#666666" points="222.6796,-125.4818 230.5842,-126.293 224.9107,-120.7295 222.6796,-125.4818"/>
</g>
<!-- x4&#45;&gt;h22 -->
<g id="edge17" class="edge">
<title>x4&#45;&gt;h22</title>
<path fill="none" stroke="#666666" d="M51.4307,-38.9101C89.2035,-49.5503 178.7081,-74.7628 222.294,-87.0406"/>
<polygon fill="#666666" stroke="#666666" points="221.6964,-89.5993 229.6272,-89.1063 223.1199,-84.546 221.6964,-89.5993"/>
</g>
<!-- x4&#45;&gt;h32 -->
<g id="edge18" class="edge">
<title>x4&#45;&gt;h32</title>
<path fill="none" stroke="#666666" d="M46.6862,-47.1032C82.9425,-84.5509 187.0938,-192.1251 229.1086,-235.5207"/>
<polygon fill="#666666" stroke="#666666" points="227.2774,-237.4031 234.3802,-240.9655 231.0492,-233.7512 227.2774,-237.4031"/>
</g>
<!-- x4&#45;&gt;h42 -->
<g id="edge19" class="edge">
<title>x4&#45;&gt;h42</title>
<path fill="none" stroke="#666666" d="M47.9755,-45.8103C84.8489,-76.9709 184.846,-161.4755 227.4023,-197.4385"/>
<polygon fill="#666666" stroke="#666666" points="225.8271,-199.5442 233.2499,-202.3802 229.2158,-195.5343 225.8271,-199.5442"/>
</g>
<!-- x4&#45;&gt;h52 -->
<g id="edge20" class="edge">
<title>x4&#45;&gt;h52</title>
<path fill="none" stroke="#666666" d="M49.3184,-44.0685C86.6228,-68.5878 182.2721,-131.4559 225.3714,-159.784"/>
<polygon fill="#666666" stroke="#666666" points="224.1111,-162.0969 231.8204,-164.0228 226.9948,-157.7097 224.1111,-162.0969"/>
</g>
<!-- x5 -->
<g id="node5" class="node">
<title>x5</title>
<ellipse fill="#fcf9f4" stroke="#000000" cx="34" cy="-314" rx="18" ry="18"/>
</g>
<!-- x5&#45;&gt;h12 -->
<g id="edge21" class="edge">
<title>x5&#45;&gt;h12</title>
<path fill="none" stroke="#666666" d="M47.9755,-302.1897C84.8489,-271.0291 184.846,-186.5245 227.4023,-150.5615"/>
<polygon fill="#666666" stroke="#666666" points="229.2158,-152.4657 233.2499,-145.6198 225.8271,-148.4558 229.2158,-152.4657"/>
</g>
<!-- x5&#45;&gt;h22 -->
<g id="edge22" class="edge">
<title>x5&#45;&gt;h22</title>
<path fill="none" stroke="#666666" d="M46.6862,-300.8968C82.9425,-263.4491 187.0938,-155.8749 229.1086,-112.4793"/>
<polygon fill="#666666" stroke="#666666" points="231.0492,-114.2488 234.3802,-107.0345 227.2774,-110.5969 231.0492,-114.2488"/>
</g>
<!-- x5&#45;&gt;h32 -->
<g id="edge23" class="edge">
<title>x5&#45;&gt;h32</title>
<path fill="none" stroke="#666666" d="M51.4307,-309.0899C89.2035,-298.4497 178.7081,-273.2372 222.294,-260.9594"/>
<polygon fill="#666666" stroke="#666666" points="223.1199,-263.454 229.6272,-258.8937 221.6964,-258.4007 223.1199,-263.454"/>
</g>
<!-- x5&#45;&gt;h42 -->
<g id="edge24" class="edge">
<title>x5&#45;&gt;h42</title>
<path fill="none" stroke="#666666" d="M50.3601,-306.3192C87.8398,-288.7231 180.0292,-245.4417 223.5413,-225.0135"/>
<polygon fill="#666666" stroke="#666666" points="224.9107,-227.2705 230.5842,-221.707 222.6796,-222.5182 224.9107,-227.2705"/>
</g>
<!-- x5&#45;&gt;h52 -->
<g id="edge25" class="edge">
<title>x5&#45;&gt;h52</title>
<path fill="none" stroke="#666666" d="M49.3184,-303.9315C86.6228,-279.4122 182.2721,-216.5441 225.3714,-188.216"/>
<polygon fill="#666666" stroke="#666666" points="226.9948,-190.2903 231.8204,-183.9772 224.1111,-185.9031 226.9948,-190.2903"/>
</g>
<!-- x6 -->
<g id="node6" class="node">
<title>x6</title>
<ellipse fill="#fcf9f4" stroke="#000000" cx="34" cy="-274" rx="18" ry="18"/>
</g>
<!-- x6&#45;&gt;h12 -->
<g id="edge26" class="edge">
<title>x6&#45;&gt;h12</title>
<path fill="none" stroke="#666666" d="M49.3184,-263.9315C86.6228,-239.4122 182.2721,-176.5441 225.3714,-148.216"/>
<polygon fill="#666666" stroke="#666666" points="226.9948,-150.2903 231.8204,-143.9772 224.1111,-145.9031 226.9948,-150.2903"/>
</g>
<!-- x6&#45;&gt;h22 -->
<g id="edge27" class="edge">
<title>x6&#45;&gt;h22</title>
<path fill="none" stroke="#666666" d="M47.9755,-262.1897C84.8489,-231.0291 184.846,-146.5245 227.4023,-110.5615"/>
<polygon fill="#666666" stroke="#666666" points="229.2158,-112.4657 233.2499,-105.6198 225.8271,-108.4558 229.2158,-112.4657"/>
</g>
<!-- x6&#45;&gt;h32 -->
<g id="edge28" class="edge">
<title>x6&#45;&gt;h32</title>
<path fill="none" stroke="#666666" d="M52.1603,-272.2948C90.044,-268.7376 177.5958,-260.5168 221.2644,-256.4165"/>
<polygon fill="#666666" stroke="#666666" points="221.664,-259.0156 228.8857,-255.7009 221.1731,-253.7886 221.664,-259.0156"/>
</g>
<!-- x6&#45;&gt;h42 -->
<g id="edge29" class="edge">
<title>x6&#45;&gt;h42</title>
<path fill="none" stroke="#666666" d="M51.4307,-269.0899C89.2035,-258.4497 178.7081,-233.2372 222.294,-220.9594"/>
<polygon fill="#666666" stroke="#666666" points="223.1199,-223.454 229.6272,-218.8937 221.6964,-218.4007 223.1199,-223.454"/>
</g>
<!-- x6&#45;&gt;h52 -->
<g id="edge30" class="edge">
<title>x6&#45;&gt;h52</title>
<path fill="none" stroke="#666666" d="M50.3601,-266.3192C87.8398,-248.7231 180.0292,-205.4417 223.5413,-185.0135"/>
<polygon fill="#666666" stroke="#666666" points="224.9107,-187.2705 230.5842,-181.707 222.6796,-182.5182 224.9107,-187.2705"/>
</g>
<!-- x7 -->
<g id="node7" class="node">
<title>x7</title>
<ellipse fill="#fcf9f4" stroke="#000000" cx="34" cy="-234" rx="18" ry="18"/>
</g>
<!-- x7&#45;&gt;h12 -->
<g id="edge31" class="edge">
<title>x7&#45;&gt;h12</title>
<path fill="none" stroke="#666666" d="M50.3601,-226.3192C87.8398,-208.7231 180.0292,-165.4417 223.5413,-145.0135"/>
<polygon fill="#666666" stroke="#666666" points="224.9107,-147.2705 230.5842,-141.707 222.6796,-142.5182 224.9107,-147.2705"/>
</g>
<!-- x7&#45;&gt;h22 -->
<g id="edge32" class="edge">
<title>x7&#45;&gt;h22</title>
<path fill="none" stroke="#666666" d="M49.3184,-223.9315C86.6228,-199.4122 182.2721,-136.5441 225.3714,-108.216"/>
<polygon fill="#666666" stroke="#666666" points="226.9948,-110.2903 231.8204,-103.9772 224.1111,-105.9031 226.9948,-110.2903"/>
</g>
<!-- x7&#45;&gt;h32 -->
<g id="edge33" class="edge">
<title>x7&#45;&gt;h32</title>
<path fill="none" stroke="#666666" d="M52.1603,-235.7052C90.044,-239.2624 177.5958,-247.4832 221.2644,-251.5835"/>
<polygon fill="#666666" stroke="#666666" points="221.1731,-254.2114 228.8857,-252.2991 221.664,-248.9844 221.1731,-254.2114"/>
</g>
<!-- x7&#45;&gt;h42 -->
<g id="edge34" class="edge">
<title>x7&#45;&gt;h42</title>
<path fill="none" stroke="#666666" d="M52.1603,-232.2948C90.044,-228.7376 177.5958,-220.5168 221.2644,-216.4165"/>
<polygon fill="#666666" stroke="#666666" points="221.664,-219.0156 228.8857,-215.7009 221.1731,-213.7886 221.664,-219.0156"/>
</g>
<!-- x7&#45;&gt;h52 -->
<g id="edge35" class="edge">
<title>x7&#45;&gt;h52</title>
<path fill="none" stroke="#666666" d="M51.4307,-229.0899C89.2035,-218.4497 178.7081,-193.2372 222.294,-180.9594"/>
<polygon fill="#666666" stroke="#666666" points="223.1199,-183.454 229.6272,-178.8937 221.6964,-178.4007 223.1199,-183.454"/>
</g>
<!-- x8 -->
<g id="node8" class="node">
<title>x8</title>
<ellipse fill="#fcf9f4" stroke="#000000" cx="34" cy="-194" rx="18" ry="18"/>
</g>
<!-- x8&#45;&gt;h12 -->
<g id="edge36" class="edge">
<title>x8&#45;&gt;h12</title>
<path fill="none" stroke="#666666" d="M51.4307,-189.0899C89.2035,-178.4497 178.7081,-153.2372 222.294,-140.9594"/>
<polygon fill="#666666" stroke="#666666" points="223.1199,-143.454 229.6272,-138.8937 221.6964,-138.4007 223.1199,-143.454"/>
</g>
<!-- x8&#45;&gt;h22 -->
<g id="edge37" class="edge">
<title>x8&#45;&gt;h22</title>
<path fill="none" stroke="#666666" d="M50.3601,-186.3192C87.8398,-168.7231 180.0292,-125.4417 223.5413,-105.0135"/>
<polygon fill="#666666" stroke="#666666" points="224.9107,-107.2705 230.5842,-101.707 222.6796,-102.5182 224.9107,-107.2705"/>
</g>
<!-- x8&#45;&gt;h32 -->
<g id="edge38" class="edge">
<title>x8&#45;&gt;h32</title>
<path fill="none" stroke="#666666" d="M51.4307,-198.9101C89.2035,-209.5503 178.7081,-234.7628 222.294,-247.0406"/>
<polygon fill="#666666" stroke="#666666" points="221.6964,-249.5993 229.6272,-249.1063 223.1199,-244.546 221.6964,-249.5993"/>
</g>
<!-- x8&#45;&gt;h42 -->
<g id="edge39" class="edge">
<title>x8&#45;&gt;h42</title>
<path fill="none" stroke="#666666" d="M52.1603,-195.7052C90.044,-199.2624 177.5958,-207.4832 221.2644,-211.5835"/>
<polygon fill="#666666" stroke="#666666" points="221.1731,-214.2114 228.8857,-212.2991 221.664,-208.9844 221.1731,-214.2114"/>
</g>
<!-- x8&#45;&gt;h52 -->
<g id="edge40" class="edge">
<title>x8&#45;&gt;h52</title>
<path fill="none" stroke="#666666" d="M52.1603,-192.2948C90.044,-188.7376 177.5958,-180.5168 221.2644,-176.4165"/>
<polygon fill="#666666" stroke="#666666" points="221.664,-179.0156 228.8857,-175.7009 221.1731,-173.7886 221.664,-179.0156"/>
</g>
<!-- O1 -->
<g id="node14" class="node">
<title>O1</title>
<ellipse fill="#fcf9f4" stroke="#000000" cx="461" cy="-134" rx="18" ry="18"/>
</g>
<!-- h12&#45;&gt;O1 -->
<g id="edge41" class="edge">
<title>h12&#45;&gt;O1</title>
<path fill="none" stroke="#666666" d="M265.2455,-134C303.3072,-134 391.2699,-134 435.1435,-134"/>
<polygon fill="#666666" stroke="#666666" points="435.3007,-136.6251 442.8007,-134 435.3006,-131.3751 435.3007,-136.6251"/>
</g>
<!-- O2 -->
<g id="node15" class="node">
<title>O2</title>
<ellipse fill="#fcf9f4" stroke="#000000" cx="461" cy="-214" rx="18" ry="18"/>
</g>
<!-- h12&#45;&gt;O2 -->
<g id="edge46" class="edge">
<title>h12&#45;&gt;O2</title>
<path fill="none" stroke="#666666" d="M264.1508,-140.4115C302.1229,-154.6067 393.3736,-188.7191 436.9922,-205.0251"/>
<polygon fill="#666666" stroke="#666666" points="436.1202,-207.5015 444.0646,-207.669 437.9586,-202.5839 436.1202,-207.5015"/>
</g>
<!-- O3 -->
<g id="node16" class="node">
<title>O3</title>
<ellipse fill="#fcf9f4" stroke="#000000" cx="461" cy="-174" rx="18" ry="18"/>
</g>
<!-- h12&#45;&gt;O3 -->
<g id="edge51" class="edge">
<title>h12&#45;&gt;O3</title>
<path fill="none" stroke="#666666" d="M264.8774,-137.3416C302.8781,-144.4445 391.7866,-161.0629 435.6332,-169.2585"/>
<polygon fill="#666666" stroke="#666666" points="435.1683,-171.842 443.0229,-170.6398 436.133,-166.6814 435.1683,-171.842"/>
</g>
<!-- h22&#45;&gt;O1 -->
<g id="edge42" class="edge">
<title>h22&#45;&gt;O1</title>
<path fill="none" stroke="#666666" d="M264.8774,-97.3416C302.8781,-104.4445 391.7866,-121.0629 435.6332,-129.2585"/>
<polygon fill="#666666" stroke="#666666" points="435.1683,-131.842 443.0229,-130.6398 436.133,-126.6814 435.1683,-131.842"/>
</g>
<!-- h22&#45;&gt;O2 -->
<g id="edge47" class="edge">
<title>h22&#45;&gt;O2</title>
<path fill="none" stroke="#666666" d="M262.7359,-102.8239C300.2241,-123.8453 394.9203,-176.946 438.4632,-201.3625"/>
<polygon fill="#666666" stroke="#666666" points="437.4154,-203.7845 445.241,-205.1632 439.9832,-199.2053 437.4154,-203.7845"/>
</g>
<!-- h22&#45;&gt;O3 -->
<g id="edge52" class="edge">
<title>h22&#45;&gt;O3</title>
<path fill="none" stroke="#666666" d="M264.1508,-100.4115C302.1229,-114.6067 393.3736,-148.7191 436.9922,-165.0251"/>
<polygon fill="#666666" stroke="#666666" points="436.1202,-167.5015 444.0646,-167.669 437.9586,-162.5839 436.1202,-167.5015"/>
</g>
<!-- h32&#45;&gt;O1 -->
<g id="edge43" class="edge">
<title>h32&#45;&gt;O1</title>
<path fill="none" stroke="#666666" d="M262.7359,-245.1761C300.2241,-224.1547 394.9203,-171.054 438.4632,-146.6375"/>
<polygon fill="#666666" stroke="#666666" points="439.9832,-148.7947 445.241,-142.8368 437.4154,-144.2155 439.9832,-148.7947"/>
</g>
<!-- h32&#45;&gt;O2 -->
<g id="edge48" class="edge">
<title>h32&#45;&gt;O2</title>
<path fill="none" stroke="#666666" d="M264.8774,-250.6584C302.8781,-243.5555 391.7866,-226.9371 435.6332,-218.7415"/>
<polygon fill="#666666" stroke="#666666" points="436.133,-221.3186 443.0229,-217.3602 435.1683,-216.158 436.133,-221.3186"/>
</g>
<!-- h32&#45;&gt;O3 -->
<g id="edge53" class="edge">
<title>h32&#45;&gt;O3</title>
<path fill="none" stroke="#666666" d="M264.1508,-247.5885C302.1229,-233.3933 393.3736,-199.2809 436.9922,-182.9749"/>
<polygon fill="#666666" stroke="#666666" points="437.9586,-185.4161 444.0646,-180.331 436.1202,-180.4985 437.9586,-185.4161"/>
</g>
<!-- h42&#45;&gt;O1 -->
<g id="edge44" class="edge">
<title>h42&#45;&gt;O1</title>
<path fill="none" stroke="#666666" d="M264.1508,-207.5885C302.1229,-193.3933 393.3736,-159.2809 436.9922,-142.9749"/>
<polygon fill="#666666" stroke="#666666" points="437.9586,-145.4161 444.0646,-140.331 436.1202,-140.4985 437.9586,-145.4161"/>
</g>
<!-- h42&#45;&gt;O2 -->
<g id="edge49" class="edge">
<title>h42&#45;&gt;O2</title>
<path fill="none" stroke="#666666" d="M265.2455,-214C303.3072,-214 391.2699,-214 435.1435,-214"/>
<polygon fill="#666666" stroke="#666666" points="435.3007,-216.6251 442.8007,-214 435.3006,-211.3751 435.3007,-216.6251"/>
</g>
<!-- h42&#45;&gt;O3 -->
<g id="edge54" class="edge">
<title>h42&#45;&gt;O3</title>
<path fill="none" stroke="#666666" d="M264.8774,-210.6584C302.8781,-203.5555 391.7866,-186.9371 435.6332,-178.7415"/>
<polygon fill="#666666" stroke="#666666" points="436.133,-181.3186 443.0229,-177.3602 435.1683,-176.158 436.133,-181.3186"/>
</g>
<!-- h52&#45;&gt;O1 -->
<g id="edge45" class="edge">
<title>h52&#45;&gt;O1</title>
<path fill="none" stroke="#666666" d="M264.8774,-170.6584C302.8781,-163.5555 391.7866,-146.9371 435.6332,-138.7415"/>
<polygon fill="#666666" stroke="#666666" points="436.133,-141.3186 443.0229,-137.3602 435.1683,-136.158 436.133,-141.3186"/>
</g>
<!-- h52&#45;&gt;O2 -->
<g id="edge50" class="edge">
<title>h52&#45;&gt;O2</title>
<path fill="none" stroke="#666666" d="M264.8774,-177.3416C302.8781,-184.4445 391.7866,-201.0629 435.6332,-209.2585"/>
<polygon fill="#666666" stroke="#666666" points="435.1683,-211.842 443.0229,-210.6398 436.133,-206.6814 435.1683,-211.842"/>
</g>
<!-- h52&#45;&gt;O3 -->
<g id="edge55" class="edge">
<title>h52&#45;&gt;O3</title>
<path fill="none" stroke="#666666" d="M265.2455,-174C303.3072,-174 391.2699,-174 435.1435,-174"/>
<polygon fill="#666666" stroke="#666666" points="435.3007,-176.6251 442.8007,-174 435.3006,-171.3751 435.3007,-176.6251"/>
</g>
</g>
</svg>
