<?xml version="1.0" encoding="UTF-8" standalone="no"?>
<!DOCTYPE svg PUBLIC "-//W3C//DTD SVG 1.1//EN"
 "http://www.w3.org/Graphics/SVG/1.1/DTD/svg11.dtd">
<!-- Generated by graphviz version 2.38.0 (20140413.2041)
 -->
<!-- Title: G Pages: 1 -->
<svg width="360pt" height="256pt"
 viewBox="0.00 0.00 360.00 256.00" xmlns="http://www.w3.org/2000/svg" xmlns:xlink="http://www.w3.org/1999/xlink">
<g id="graph0" class="graph" transform="scale(1 1) rotate(0) translate(4 252)">
<title>G</title>
<g id="clust1" class="cluster"><title>cluster_0</title>
<polygon fill="#f5eeeb" stroke="black" points="8,-48 8,-200 60,-200 60,-48 8,-48"/>
<text text-anchor="middle" x="34" y="-187.2" font-family="Times,serif" font-size="11.00">Input</text>
</g>
<g id="clust2" class="cluster"><title>cluster_1</title>
<polygon fill="#f5eeeb" stroke="black" points="80,-8 80,-240 166,-240 166,-8 80,-8"/>
<text text-anchor="middle" x="123" y="-227.2" font-family="Times,serif" font-size="11.00">Hidden Layer 1</text>
</g>
<g id="clust3" class="cluster"><title>cluster_2</title>
<polygon fill="#f5eeeb" stroke="black" points="186,-8 186,-240 272,-240 272,-8 186,-8"/>
<text text-anchor="middle" x="229" y="-227.2" font-family="Times,serif" font-size="11.00">Hidden Layer 2</text>
</g>
<g id="clust4" class="cluster"><title>cluster_3</title>
<polygon fill="#f5eeeb" stroke="black" points="292,-28 292,-220 344,-220 344,-28 292,-28"/>
<text text-anchor="middle" x="318" y="-207.2" font-family="Times,serif" font-size="11.00">Output</text>
</g>
<!-- x1 -->
<g id="node1" class="node"><title>x1</title>
<ellipse fill="#7bbda4" stroke="#7bbda4" cx="34" cy="-114" rx="18" ry="18"/>
</g>
<!-- a12 -->
<g id="node4" class="node"><title>a12</title>
<ellipse fill="#d28b71" stroke="#d28b71" cx="123" cy="-74" rx="18" ry="18"/>
</g>
<!-- x1&#45;&gt;a12 -->
<g id="edge1" class="edge"><title>x1&#45;&gt;a12</title>
<path fill="none" stroke="black" d="M50.5539,-106.849C64.0786,-100.631 83.8537,-91.5385 99.1723,-84.4955"/>
<polygon fill="black" stroke="black" points="100.57,-86.7422 106.287,-81.2242 98.3766,-81.9722 100.57,-86.7422"/>
</g>
<!-- a22 -->
<g id="node5" class="node"><title>a22</title>
<ellipse fill="#d28b71" stroke="#d28b71" cx="123" cy="-34" rx="18" ry="18"/>
</g>
<!-- x1&#45;&gt;a22 -->
<g id="edge2" class="edge"><title>x1&#45;&gt;a22</title>
<path fill="none" stroke="black" d="M47.8371,-102.196C62.4868,-88.7247 86.5768,-66.573 103.31,-51.1867"/>
<polygon fill="black" stroke="black" points="105.366,-52.8616 109.11,-45.8527 101.813,-48.997 105.366,-52.8616"/>
</g>
<!-- a32 -->
<g id="node6" class="node"><title>a32</title>
<ellipse fill="#d28b71" stroke="#d28b71" cx="123" cy="-194" rx="18" ry="18"/>
</g>
<!-- x1&#45;&gt;a32 -->
<g id="edge3" class="edge"><title>x1&#45;&gt;a32</title>
<path fill="none" stroke="black" d="M47.8371,-125.804C62.4868,-139.275 86.5768,-161.427 103.31,-176.813"/>
<polygon fill="black" stroke="black" points="101.813,-179.003 109.11,-182.147 105.366,-175.138 101.813,-179.003"/>
</g>
<!-- a42 -->
<g id="node7" class="node"><title>a42</title>
<ellipse fill="#d28b71" stroke="#d28b71" cx="123" cy="-154" rx="18" ry="18"/>
</g>
<!-- x1&#45;&gt;a42 -->
<g id="edge4" class="edge"><title>x1&#45;&gt;a42</title>
<path fill="none" stroke="black" d="M50.5539,-121.151C64.0786,-127.369 83.8537,-136.461 99.1723,-143.505"/>
<polygon fill="black" stroke="black" points="98.3766,-146.028 106.287,-146.776 100.57,-141.258 98.3766,-146.028"/>
</g>
<!-- a52 -->
<g id="node8" class="node"><title>a52</title>
<ellipse fill="#d28b71" stroke="#d28b71" cx="123" cy="-114" rx="18" ry="18"/>
</g>
<!-- x1&#45;&gt;a52 -->
<g id="edge5" class="edge"><title>x1&#45;&gt;a52</title>
<path fill="none" stroke="black" d="M52.1884,-114C65.0575,-114 82.848,-114 97.2485,-114"/>
<polygon fill="black" stroke="black" points="97.3473,-116.625 104.847,-114 97.3473,-111.375 97.3473,-116.625"/>
</g>
<!-- x2 -->
<g id="node2" class="node"><title>x2</title>
<ellipse fill="#7bbda4" stroke="#7bbda4" cx="34" cy="-74" rx="18" ry="18"/>
</g>
<!-- x2&#45;&gt;a12 -->
<g id="edge6" class="edge"><title>x2&#45;&gt;a12</title>
<path fill="none" stroke="black" d="M52.1884,-74C65.0575,-74 82.848,-74 97.2485,-74"/>
<polygon fill="black" stroke="black" points="97.3473,-76.6251 104.847,-74 97.3473,-71.3751 97.3473,-76.6251"/>
</g>
<!-- x2&#45;&gt;a22 -->
<g id="edge7" class="edge"><title>x2&#45;&gt;a22</title>
<path fill="none" stroke="black" d="M50.5539,-66.8488C64.0786,-60.6305 83.8537,-51.5385 99.1723,-44.4955"/>
<polygon fill="black" stroke="black" points="100.57,-46.7422 106.287,-41.2242 98.3766,-41.9722 100.57,-46.7422"/>
</g>
<!-- x2&#45;&gt;a32 -->
<g id="edge8" class="edge"><title>x2&#45;&gt;a32</title>
<path fill="none" stroke="black" d="M45.3217,-88.2368C60.6921,-109.437 89.669,-149.405 107.265,-173.676"/>
<polygon fill="black" stroke="black" points="105.164,-175.25 111.692,-179.782 109.415,-172.169 105.164,-175.25"/>
</g>
<!-- x2&#45;&gt;a42 -->
<g id="edge9" class="edge"><title>x2&#45;&gt;a42</title>
<path fill="none" stroke="black" d="M47.8371,-85.8043C62.4868,-99.2753 86.5768,-121.427 103.31,-136.813"/>
<polygon fill="black" stroke="black" points="101.813,-139.003 109.11,-142.147 105.366,-135.138 101.813,-139.003"/>
</g>
<!-- x2&#45;&gt;a52 -->
<g id="edge10" class="edge"><title>x2&#45;&gt;a52</title>
<path fill="none" stroke="black" d="M50.5539,-81.1512C64.0786,-87.3695 83.8537,-96.4615 99.1723,-103.505"/>
<polygon fill="black" stroke="black" points="98.3766,-106.028 106.287,-106.776 100.57,-101.258 98.3766,-106.028"/>
</g>
<!-- x3 -->
<g id="node3" class="node"><title>x3</title>
<ellipse fill="#7bbda4" stroke="#7bbda4" cx="34" cy="-154" rx="18" ry="18"/>
</g>
<!-- x3&#45;&gt;a12 -->
<g id="edge11" class="edge"><title>x3&#45;&gt;a12</title>
<path fill="none" stroke="black" d="M47.8371,-142.196C62.4868,-128.725 86.5768,-106.573 103.31,-91.1867"/>
<polygon fill="black" stroke="black" points="105.366,-92.8616 109.11,-85.8527 101.813,-88.997 105.366,-92.8616"/>
</g>
<!-- x3&#45;&gt;a22 -->
<g id="edge12" class="edge"><title>x3&#45;&gt;a22</title>
<path fill="none" stroke="black" d="M45.3217,-139.763C60.6921,-118.563 89.669,-78.5945 107.265,-54.3242"/>
<polygon fill="black" stroke="black" points="109.415,-55.8312 111.692,-48.2183 105.164,-52.7496 109.415,-55.8312"/>
</g>
<!-- x3&#45;&gt;a32 -->
<g id="edge13" class="edge"><title>x3&#45;&gt;a32</title>
<path fill="none" stroke="black" d="M50.5539,-161.151C64.0786,-167.369 83.8537,-176.461 99.1723,-183.505"/>
<polygon fill="black" stroke="black" points="98.3766,-186.028 106.287,-186.776 100.57,-181.258 98.3766,-186.028"/>
</g>
<!-- x3&#45;&gt;a42 -->
<g id="edge14" class="edge"><title>x3&#45;&gt;a42</title>
<path fill="none" stroke="black" d="M52.1884,-154C65.0575,-154 82.848,-154 97.2485,-154"/>
<polygon fill="black" stroke="black" points="97.3473,-156.625 104.847,-154 97.3473,-151.375 97.3473,-156.625"/>
</g>
<!-- x3&#45;&gt;a52 -->
<g id="edge15" class="edge"><title>x3&#45;&gt;a52</title>
<path fill="none" stroke="black" d="M50.5539,-146.849C64.0786,-140.631 83.8537,-131.539 99.1723,-124.495"/>
<polygon fill="black" stroke="black" points="100.57,-126.742 106.287,-121.224 98.3766,-121.972 100.57,-126.742"/>
</g>
<!-- a13 -->
<g id="node9" class="node"><title>a13</title>
<ellipse fill="#d28b71" stroke="#d28b71" cx="229" cy="-74" rx="18" ry="18"/>
</g>
<!-- a12&#45;&gt;a13 -->
<g id="edge16" class="edge"><title>a12&#45;&gt;a13</title>
<path fill="none" stroke="black" d="M141.173,-74C158.034,-74 183.936,-74 203.064,-74"/>
<polygon fill="black" stroke="black" points="203.301,-76.6251 210.801,-74 203.301,-71.3751 203.301,-76.6251"/>
</g>
<!-- a23 -->
<g id="node10" class="node"><title>a23</title>
<ellipse fill="#d28b71" stroke="#d28b71" cx="229" cy="-34" rx="18" ry="18"/>
</g>
<!-- a12&#45;&gt;a23 -->
<g id="edge21" class="edge"><title>a12&#45;&gt;a23</title>
<path fill="none" stroke="black" d="M140.25,-67.75C157.575,-61.0866 185.161,-50.4765 204.775,-42.9326"/>
<polygon fill="black" stroke="black" points="205.806,-45.3486 211.864,-40.2061 203.922,-40.4485 205.806,-45.3486"/>
</g>
<!-- a33 -->
<g id="node11" class="node"><title>a33</title>
<ellipse fill="#d28b71" stroke="#d28b71" cx="229" cy="-194" rx="18" ry="18"/>
</g>
<!-- a12&#45;&gt;a33 -->
<g id="edge26" class="edge"><title>a12&#45;&gt;a33</title>
<path fill="none" stroke="black" d="M135.527,-87.3006C153.956,-108.565 190.135,-150.31 211.366,-174.806"/>
<polygon fill="black" stroke="black" points="209.525,-176.691 216.421,-180.64 213.493,-173.253 209.525,-176.691"/>
</g>
<!-- a43 -->
<g id="node12" class="node"><title>a43</title>
<ellipse fill="#d28b71" stroke="#d28b71" cx="229" cy="-154" rx="18" ry="18"/>
</g>
<!-- a12&#45;&gt;a43 -->
<g id="edge31" class="edge"><title>a12&#45;&gt;a43</title>
<path fill="none" stroke="black" d="M138.026,-84.7892C156.115,-98.7036 187.683,-122.987 208.208,-138.776"/>
<polygon fill="black" stroke="black" points="206.651,-140.89 214.196,-143.382 209.852,-136.728 206.651,-140.89"/>
</g>
<!-- a53 -->
<g id="node13" class="node"><title>a53</title>
<ellipse fill="#d28b71" stroke="#d28b71" cx="229" cy="-114" rx="18" ry="18"/>
</g>
<!-- a12&#45;&gt;a53 -->
<g id="edge36" class="edge"><title>a12&#45;&gt;a53</title>
<path fill="none" stroke="black" d="M140.25,-80.25C157.575,-86.9134 185.161,-97.5235 204.775,-105.067"/>
<polygon fill="black" stroke="black" points="203.922,-107.552 211.864,-107.794 205.806,-102.651 203.922,-107.552"/>
</g>
<!-- a22&#45;&gt;a13 -->
<g id="edge17" class="edge"><title>a22&#45;&gt;a13</title>
<path fill="none" stroke="black" d="M140.25,-40.25C157.575,-46.9134 185.161,-57.5235 204.775,-65.0674"/>
<polygon fill="black" stroke="black" points="203.922,-67.5515 211.864,-67.7939 205.806,-62.6514 203.922,-67.5515"/>
</g>
<!-- a22&#45;&gt;a23 -->
<g id="edge22" class="edge"><title>a22&#45;&gt;a23</title>
<path fill="none" stroke="black" d="M141.173,-34C158.034,-34 183.936,-34 203.064,-34"/>
<polygon fill="black" stroke="black" points="203.301,-36.6251 210.801,-34 203.301,-31.3751 203.301,-36.6251"/>
</g>
<!-- a22&#45;&gt;a33 -->
<g id="edge27" class="edge"><title>a22&#45;&gt;a33</title>
<path fill="none" stroke="black" d="M133.598,-48.7656C152.094,-77.2222 192.739,-139.752 214.161,-172.709"/>
<polygon fill="black" stroke="black" points="212.137,-174.412 218.426,-179.27 216.539,-171.551 212.137,-174.412"/>
</g>
<!-- a22&#45;&gt;a43 -->
<g id="edge32" class="edge"><title>a22&#45;&gt;a43</title>
<path fill="none" stroke="black" d="M135.527,-47.3006C153.956,-68.565 190.135,-110.31 211.366,-134.806"/>
<polygon fill="black" stroke="black" points="209.525,-136.691 216.421,-140.64 213.493,-133.253 209.525,-136.691"/>
</g>
<!-- a22&#45;&gt;a53 -->
<g id="edge37" class="edge"><title>a22&#45;&gt;a53</title>
<path fill="none" stroke="black" d="M138.026,-44.7892C156.115,-58.7036 187.683,-82.9871 208.208,-98.7755"/>
<polygon fill="black" stroke="black" points="206.651,-100.89 214.196,-103.382 209.852,-96.7283 206.651,-100.89"/>
</g>
<!-- a32&#45;&gt;a13 -->
<g id="edge18" class="edge"><title>a32&#45;&gt;a13</title>
<path fill="none" stroke="black" d="M135.527,-180.699C153.956,-159.435 190.135,-117.69 211.366,-93.1936"/>
<polygon fill="black" stroke="black" points="213.493,-94.7471 216.421,-87.3602 209.525,-91.3087 213.493,-94.7471"/>
</g>
<!-- a32&#45;&gt;a23 -->
<g id="edge23" class="edge"><title>a32&#45;&gt;a23</title>
<path fill="none" stroke="black" d="M133.598,-179.234C152.094,-150.778 192.739,-88.2479 214.161,-55.2908"/>
<polygon fill="black" stroke="black" points="216.539,-56.4489 218.426,-48.7299 212.137,-53.5877 216.539,-56.4489"/>
</g>
<!-- a32&#45;&gt;a33 -->
<g id="edge28" class="edge"><title>a32&#45;&gt;a33</title>
<path fill="none" stroke="black" d="M141.173,-194C158.034,-194 183.936,-194 203.064,-194"/>
<polygon fill="black" stroke="black" points="203.301,-196.625 210.801,-194 203.301,-191.375 203.301,-196.625"/>
</g>
<!-- a32&#45;&gt;a43 -->
<g id="edge33" class="edge"><title>a32&#45;&gt;a43</title>
<path fill="none" stroke="black" d="M140.25,-187.75C157.575,-181.087 185.161,-170.477 204.775,-162.933"/>
<polygon fill="black" stroke="black" points="205.806,-165.349 211.864,-160.206 203.922,-160.448 205.806,-165.349"/>
</g>
<!-- a32&#45;&gt;a53 -->
<g id="edge38" class="edge"><title>a32&#45;&gt;a53</title>
<path fill="none" stroke="black" d="M138.026,-183.211C156.115,-169.296 187.683,-145.013 208.208,-129.224"/>
<polygon fill="black" stroke="black" points="209.852,-131.272 214.196,-124.618 206.651,-127.11 209.852,-131.272"/>
</g>
<!-- a42&#45;&gt;a13 -->
<g id="edge19" class="edge"><title>a42&#45;&gt;a13</title>
<path fill="none" stroke="black" d="M138.026,-143.211C156.115,-129.296 187.683,-105.013 208.208,-89.2245"/>
<polygon fill="black" stroke="black" points="209.852,-91.2717 214.196,-84.6182 206.651,-87.1104 209.852,-91.2717"/>
</g>
<!-- a42&#45;&gt;a23 -->
<g id="edge24" class="edge"><title>a42&#45;&gt;a23</title>
<path fill="none" stroke="black" d="M135.527,-140.699C153.956,-119.435 190.135,-77.6905 211.366,-53.1936"/>
<polygon fill="black" stroke="black" points="213.493,-54.7471 216.421,-47.3602 209.525,-51.3087 213.493,-54.7471"/>
</g>
<!-- a42&#45;&gt;a33 -->
<g id="edge29" class="edge"><title>a42&#45;&gt;a33</title>
<path fill="none" stroke="black" d="M140.25,-160.25C157.575,-166.913 185.161,-177.523 204.775,-185.067"/>
<polygon fill="black" stroke="black" points="203.922,-187.552 211.864,-187.794 205.806,-182.651 203.922,-187.552"/>
</g>
<!-- a42&#45;&gt;a43 -->
<g id="edge34" class="edge"><title>a42&#45;&gt;a43</title>
<path fill="none" stroke="black" d="M141.173,-154C158.034,-154 183.936,-154 203.064,-154"/>
<polygon fill="black" stroke="black" points="203.301,-156.625 210.801,-154 203.301,-151.375 203.301,-156.625"/>
</g>
<!-- a42&#45;&gt;a53 -->
<g id="edge39" class="edge"><title>a42&#45;&gt;a53</title>
<path fill="none" stroke="black" d="M140.25,-147.75C157.575,-141.087 185.161,-130.477 204.775,-122.933"/>
<polygon fill="black" stroke="black" points="205.806,-125.349 211.864,-120.206 203.922,-120.448 205.806,-125.349"/>
</g>
<!-- a52&#45;&gt;a13 -->
<g id="edge20" class="edge"><title>a52&#45;&gt;a13</title>
<path fill="none" stroke="black" d="M140.25,-107.75C157.575,-101.087 185.161,-90.4765 204.775,-82.9326"/>
<polygon fill="black" stroke="black" points="205.806,-85.3486 211.864,-80.2061 203.922,-80.4485 205.806,-85.3486"/>
</g>
<!-- a52&#45;&gt;a23 -->
<g id="edge25" class="edge"><title>a52&#45;&gt;a23</title>
<path fill="none" stroke="black" d="M138.026,-103.211C156.115,-89.2964 187.683,-65.0129 208.208,-49.2245"/>
<polygon fill="black" stroke="black" points="209.852,-51.2717 214.196,-44.6182 206.651,-47.1104 209.852,-51.2717"/>
</g>
<!-- a52&#45;&gt;a33 -->
<g id="edge30" class="edge"><title>a52&#45;&gt;a33</title>
<path fill="none" stroke="black" d="M138.026,-124.789C156.115,-138.704 187.683,-162.987 208.208,-178.776"/>
<polygon fill="black" stroke="black" points="206.651,-180.89 214.196,-183.382 209.852,-176.728 206.651,-180.89"/>
</g>
<!-- a52&#45;&gt;a43 -->
<g id="edge35" class="edge"><title>a52&#45;&gt;a43</title>
<path fill="none" stroke="black" d="M140.25,-120.25C157.575,-126.913 185.161,-137.523 204.775,-145.067"/>
<polygon fill="black" stroke="black" points="203.922,-147.552 211.864,-147.794 205.806,-142.651 203.922,-147.552"/>
</g>
<!-- a52&#45;&gt;a53 -->
<g id="edge40" class="edge"><title>a52&#45;&gt;a53</title>
<path fill="none" stroke="black" d="M141.173,-114C158.034,-114 183.936,-114 203.064,-114"/>
<polygon fill="black" stroke="black" points="203.301,-116.625 210.801,-114 203.301,-111.375 203.301,-116.625"/>
</g>
<!-- O1 -->
<g id="node14" class="node"><title>O1</title>
<ellipse fill="#a89bb9" stroke="#a89bb9" cx="318" cy="-174" rx="18" ry="18"/>
</g>
<!-- a13&#45;&gt;O1 -->
<g id="edge41" class="edge"><title>a13&#45;&gt;O1</title>
<path fill="none" stroke="black" d="M241.374,-87.0733C256.484,-104.441 283.279,-135.241 300.582,-155.129"/>
<polygon fill="black" stroke="black" points="298.72,-156.988 305.623,-160.924 302.681,-153.542 298.72,-156.988"/>
</g>
<!-- O2 -->
<g id="node15" class="node"><title>O2</title>
<ellipse fill="#a89bb9" stroke="#a89bb9" cx="318" cy="-134" rx="18" ry="18"/>
</g>
<!-- a13&#45;&gt;O2 -->
<g id="edge46" class="edge"><title>a13&#45;&gt;O2</title>
<path fill="none" stroke="black" d="M244.366,-83.9078C258.471,-93.6352 280.139,-108.578 296.14,-119.614"/>
<polygon fill="black" stroke="black" points="294.948,-121.98 302.612,-124.078 297.929,-117.659 294.948,-121.98"/>
</g>
<!-- O3 -->
<g id="node16" class="node"><title>O3</title>
<ellipse fill="#a89bb9" stroke="#a89bb9" cx="318" cy="-94" rx="18" ry="18"/>
</g>
<!-- a13&#45;&gt;O3 -->
<g id="edge51" class="edge"><title>a13&#45;&gt;O3</title>
<path fill="none" stroke="black" d="M246.774,-77.8562C259.773,-80.8444 277.97,-85.0275 292.583,-88.3869"/>
<polygon fill="black" stroke="black" points="292.38,-91.0335 300.277,-90.1556 293.556,-85.917 292.38,-91.0335"/>
</g>
<!-- O4 -->
<g id="node17" class="node"><title>O4</title>
<ellipse fill="#a89bb9" stroke="#a89bb9" cx="318" cy="-54" rx="18" ry="18"/>
</g>
<!-- a13&#45;&gt;O4 -->
<g id="edge56" class="edge"><title>a13&#45;&gt;O4</title>
<path fill="none" stroke="black" d="M246.774,-70.1438C259.773,-67.1556 277.97,-62.9725 292.583,-59.6131"/>
<polygon fill="black" stroke="black" points="293.556,-62.083 300.277,-57.8444 292.38,-56.9665 293.556,-62.083"/>
</g>
<!-- a23&#45;&gt;O1 -->
<g id="edge42" class="edge"><title>a23&#45;&gt;O1</title>
<path fill="none" stroke="black" d="M239.311,-48.9825C254.813,-73.9286 285.965,-124.058 303.751,-152.68"/>
<polygon fill="black" stroke="black" points="301.568,-154.141 307.756,-159.125 306.027,-151.37 301.568,-154.141"/>
</g>
<!-- a23&#45;&gt;O2 -->
<g id="edge47" class="edge"><title>a23&#45;&gt;O2</title>
<path fill="none" stroke="black" d="M241.374,-47.0733C256.484,-64.4415 283.279,-95.2408 300.582,-115.129"/>
<polygon fill="black" stroke="black" points="298.72,-116.988 305.623,-120.924 302.681,-113.542 298.72,-116.988"/>
</g>
<!-- a23&#45;&gt;O3 -->
<g id="edge52" class="edge"><title>a23&#45;&gt;O3</title>
<path fill="none" stroke="black" d="M244.366,-43.9078C258.471,-53.6352 280.139,-68.5785 296.14,-79.6139"/>
<polygon fill="black" stroke="black" points="294.948,-81.9804 302.612,-84.0775 297.929,-77.6585 294.948,-81.9804"/>
</g>
<!-- a23&#45;&gt;O4 -->
<g id="edge57" class="edge"><title>a23&#45;&gt;O4</title>
<path fill="none" stroke="black" d="M246.774,-37.8562C259.773,-40.8444 277.97,-45.0275 292.583,-48.3869"/>
<polygon fill="black" stroke="black" points="292.38,-51.0335 300.277,-50.1556 293.556,-45.917 292.38,-51.0335"/>
</g>
<!-- a33&#45;&gt;O1 -->
<g id="edge43" class="edge"><title>a33&#45;&gt;O1</title>
<path fill="none" stroke="black" d="M246.774,-190.144C259.773,-187.156 277.97,-182.972 292.583,-179.613"/>
<polygon fill="black" stroke="black" points="293.556,-182.083 300.277,-177.844 292.38,-176.966 293.556,-182.083"/>
</g>
<!-- a33&#45;&gt;O2 -->
<g id="edge48" class="edge"><title>a33&#45;&gt;O2</title>
<path fill="none" stroke="black" d="M244.366,-184.092C258.471,-174.365 280.139,-159.422 296.14,-148.386"/>
<polygon fill="black" stroke="black" points="297.929,-150.341 302.612,-143.922 294.948,-146.02 297.929,-150.341"/>
</g>
<!-- a33&#45;&gt;O3 -->
<g id="edge53" class="edge"><title>a33&#45;&gt;O3</title>
<path fill="none" stroke="black" d="M241.374,-180.927C256.484,-163.559 283.279,-132.759 300.582,-112.871"/>
<polygon fill="black" stroke="black" points="302.681,-114.458 305.623,-107.076 298.72,-111.012 302.681,-114.458"/>
</g>
<!-- a33&#45;&gt;O4 -->
<g id="edge58" class="edge"><title>a33&#45;&gt;O4</title>
<path fill="none" stroke="black" d="M239.311,-179.018C254.813,-154.071 285.965,-103.942 303.751,-75.3198"/>
<polygon fill="black" stroke="black" points="306.027,-76.6305 307.756,-68.8747 301.568,-73.8594 306.027,-76.6305"/>
</g>
<!-- a43&#45;&gt;O1 -->
<g id="edge44" class="edge"><title>a43&#45;&gt;O1</title>
<path fill="none" stroke="black" d="M246.774,-157.856C259.773,-160.844 277.97,-165.028 292.583,-168.387"/>
<polygon fill="black" stroke="black" points="292.38,-171.034 300.277,-170.156 293.556,-165.917 292.38,-171.034"/>
</g>
<!-- a43&#45;&gt;O2 -->
<g id="edge49" class="edge"><title>a43&#45;&gt;O2</title>
<path fill="none" stroke="black" d="M246.774,-150.144C259.773,-147.156 277.97,-142.972 292.583,-139.613"/>
<polygon fill="black" stroke="black" points="293.556,-142.083 300.277,-137.844 292.38,-136.966 293.556,-142.083"/>
</g>
<!-- a43&#45;&gt;O3 -->
<g id="edge54" class="edge"><title>a43&#45;&gt;O3</title>
<path fill="none" stroke="black" d="M244.366,-144.092C258.471,-134.365 280.139,-119.422 296.14,-108.386"/>
<polygon fill="black" stroke="black" points="297.929,-110.341 302.612,-103.922 294.948,-106.02 297.929,-110.341"/>
</g>
<!-- a43&#45;&gt;O4 -->
<g id="edge59" class="edge"><title>a43&#45;&gt;O4</title>
<path fill="none" stroke="black" d="M241.374,-140.927C256.484,-123.559 283.279,-92.7592 300.582,-72.8713"/>
<polygon fill="black" stroke="black" points="302.681,-74.4578 305.623,-67.0765 298.72,-71.0118 302.681,-74.4578"/>
</g>
<!-- a53&#45;&gt;O1 -->
<g id="edge45" class="edge"><title>a53&#45;&gt;O1</title>
<path fill="none" stroke="black" d="M244.366,-123.908C258.471,-133.635 280.139,-148.578 296.14,-159.614"/>
<polygon fill="black" stroke="black" points="294.948,-161.98 302.612,-164.078 297.929,-157.659 294.948,-161.98"/>
</g>
<!-- a53&#45;&gt;O2 -->
<g id="edge50" class="edge"><title>a53&#45;&gt;O2</title>
<path fill="none" stroke="black" d="M246.774,-117.856C259.773,-120.844 277.97,-125.028 292.583,-128.387"/>
<polygon fill="black" stroke="black" points="292.38,-131.034 300.277,-130.156 293.556,-125.917 292.38,-131.034"/>
</g>
<!-- a53&#45;&gt;O3 -->
<g id="edge55" class="edge"><title>a53&#45;&gt;O3</title>
<path fill="none" stroke="black" d="M246.774,-110.144C259.773,-107.156 277.97,-102.972 292.583,-99.6131"/>
<polygon fill="black" stroke="black" points="293.556,-102.083 300.277,-97.8444 292.38,-96.9665 293.556,-102.083"/>
</g>
<!-- a53&#45;&gt;O4 -->
<g id="edge60" class="edge"><title>a53&#45;&gt;O4</title>
<path fill="none" stroke="black" d="M244.366,-104.092C258.471,-94.3648 280.139,-79.4215 296.14,-68.3861"/>
<polygon fill="black" stroke="black" points="297.929,-70.3415 302.612,-63.9225 294.948,-66.0196 297.929,-70.3415"/>
</g>
</g>
</svg>
