<?xml version="1.0" encoding="UTF-8" standalone="no"?>
<!DOCTYPE svg PUBLIC "-//W3C//DTD SVG 1.1//EN"
 "http://www.w3.org/Graphics/SVG/1.1/DTD/svg11.dtd">
<!-- Generated by graphviz version 2.38.0 (20140413.2041)
 -->
<!-- Title: KubernetesArchitecture Pages: 1 -->
<svg width="333pt" height="392pt"
 viewBox="0.00 0.00 333.00 392.00" xmlns="http://www.w3.org/2000/svg" xmlns:xlink="http://www.w3.org/1999/xlink">
<g id="graph0" class="graph" transform="scale(1 1) rotate(0) translate(4 388)">
<title>KubernetesArchitecture</title>
<g id="clust1" class="cluster"><title>clusterMaster</title>
<polygon fill="#f5eeeb" stroke="#b8afad" points="84,-61 84,-295 204,-295 204,-61 84,-61"/>
<text text-anchor="middle" x="144" y="-282.2" font-family="Times,serif" font-size="11.00" fill="#b8afad">Kubernetes Master</text>
</g>
<g id="clust2" class="cluster"><title>clusterNode1</title>
<polygon fill="#f5eeeb" stroke="#b8afad" points="224,-196 224,-376 325,-376 325,-196 224,-196"/>
<text text-anchor="middle" x="274.5" y="-363.2" font-family="Times,serif" font-size="11.00" fill="#b8afad">Kubernetes Node 1</text>
</g>
<g id="clust3" class="cluster"><title>clusterNode2</title>
<polygon fill="#f5eeeb" stroke="#b8afad" points="224,-8 224,-188 325,-188 325,-8 224,-8"/>
<text text-anchor="middle" x="274.5" y="-175.2" font-family="Times,serif" font-size="11.00" fill="#b8afad">Kubernetes Node 2</text>
</g>
<!-- client -->
<g id="node1" class="node"><title>client</title>
<polygon fill="#a89bb9" stroke="black" points="56,-213 3.55271e-15,-213 3.55271e-15,-177 56,-177 56,-213"/>
<text text-anchor="middle" x="28" y="-198.2" font-family="Times,serif" font-size="11.00">Client</text>
<text text-anchor="middle" x="28" y="-186.2" font-family="Times,serif" font-size="11.00">(kubectl)</text>
</g>
<!-- API -->
<g id="node3" class="node"><title>API</title>
<polygon fill="#8ab3b5" stroke="black" points="177,-213 111,-213 111,-177 177,-177 177,-213"/>
<text text-anchor="middle" x="144" y="-192.2" font-family="Times,serif" font-size="11.00">API Server</text>
</g>
<!-- client&#45;&gt;API -->
<g id="edge1" class="edge"><title>client&#45;&gt;API</title>
<path fill="none" stroke="black" d="M66.1318,-195C77.1961,-195 89.402,-195 100.767,-195"/>
<polygon fill="black" stroke="black" points="66.0164,-191.5 56.0164,-195 66.0164,-198.5 66.0164,-191.5"/>
<polygon fill="black" stroke="black" points="100.91,-198.5 110.91,-195 100.91,-191.5 100.91,-198.5"/>
</g>
<!-- scheduler -->
<g id="node2" class="node"><title>scheduler</title>
<polygon fill="#8ab3b5" stroke="black" points="174,-267 114,-267 114,-231 174,-231 174,-267"/>
<text text-anchor="middle" x="144" y="-246.2" font-family="Times,serif" font-size="11.00">Scheduler</text>
</g>
<!-- kubelet -->
<g id="node7" class="node"><title>kubelet</title>
<polygon fill="#8ab3b5" stroke="black" points="301.5,-294 247.5,-294 247.5,-258 301.5,-258 301.5,-294"/>
<text text-anchor="middle" x="274.5" y="-273.2" font-family="Times,serif" font-size="11.00">kubelet</text>
</g>
<!-- API&#45;&gt;kubelet -->
<g id="edge2" class="edge"><title>API&#45;&gt;kubelet</title>
<path fill="none" stroke="black" d="M186.212,-210.577C192.49,-213.857 198.65,-217.663 204,-222 215.601,-231.404 212.736,-239.195 224,-249 228.446,-252.871 233.54,-256.414 238.73,-259.57"/>
<polygon fill="black" stroke="black" points="187.539,-207.331 177.011,-206.145 184.502,-213.638 187.539,-207.331"/>
<polygon fill="black" stroke="black" points="237.031,-262.631 247.458,-264.506 240.476,-256.537 237.031,-262.631"/>
</g>
<!-- kubelet2 -->
<g id="node10" class="node"><title>kubelet2</title>
<polygon fill="#8ab3b5" stroke="black" points="301.5,-106 247.5,-106 247.5,-70 301.5,-70 301.5,-106"/>
<text text-anchor="middle" x="274.5" y="-85.2" font-family="Times,serif" font-size="11.00">kubelet</text>
</g>
<!-- API&#45;&gt;kubelet2 -->
<g id="edge3" class="edge"><title>API&#45;&gt;kubelet2</title>
<path fill="none" stroke="black" d="M186.733,-180.971C193.093,-177.477 199.144,-173.2 204,-168 221.184,-149.599 207.472,-133.992 224,-115 228.035,-110.364 233.067,-106.378 238.366,-103.002"/>
<polygon fill="black" stroke="black" points="184.767,-178.034 177.295,-185.545 187.82,-184.333 184.767,-178.034"/>
<polygon fill="black" stroke="black" points="240.424,-105.859 247.405,-97.8895 236.978,-99.7663 240.424,-105.859"/>
</g>
<!-- controller_manager -->
<g id="node4" class="node"><title>controller_manager</title>
<polygon fill="#8ab3b5" stroke="black" points="196,-159 92,-159 92,-123 196,-123 196,-159"/>
<text text-anchor="middle" x="144" y="-138.2" font-family="Times,serif" font-size="11.00">Controller Manager</text>
</g>
<!-- etcd -->
<g id="node5" class="node"><title>etcd</title>
<polygon fill="#8ab3b5" stroke="black" points="171,-105 117,-105 117,-69 171,-69 171,-105"/>
<text text-anchor="middle" x="144" y="-84.2" font-family="Times,serif" font-size="11.00">etcd</text>
</g>
<!-- Docker -->
<g id="node6" class="node"><title>Docker</title>
<polygon fill="#8ab3b5" stroke="black" points="301.5,-348 247.5,-348 247.5,-312 301.5,-312 301.5,-348"/>
<text text-anchor="middle" x="274.5" y="-327.2" font-family="Times,serif" font-size="11.00">Docker</text>
</g>
<!-- Proxy -->
<g id="node8" class="node"><title>Proxy</title>
<polygon fill="#8ab3b5" stroke="black" points="308,-240 241,-240 241,-204 308,-204 308,-240"/>
<text text-anchor="middle" x="274.5" y="-219.2" font-family="Times,serif" font-size="11.00">kube&#45;proxy</text>
</g>
<!-- Docker2 -->
<g id="node9" class="node"><title>Docker2</title>
<polygon fill="#8ab3b5" stroke="black" points="301.5,-160 247.5,-160 247.5,-124 301.5,-124 301.5,-160"/>
<text text-anchor="middle" x="274.5" y="-139.2" font-family="Times,serif" font-size="11.00">Docker</text>
</g>
<!-- Proxy2 -->
<g id="node11" class="node"><title>Proxy2</title>
<polygon fill="#8ab3b5" stroke="black" points="308,-52 241,-52 241,-16 308,-16 308,-52"/>
<text text-anchor="middle" x="274.5" y="-31.2" font-family="Times,serif" font-size="11.00">kube&#45;proxy</text>
</g>
</g>
</svg>
