<?xml version="1.0" encoding="UTF-8" standalone="no"?>
<!DOCTYPE svg PUBLIC "-//W3C//DTD SVG 1.1//EN"
 "http://www.w3.org/Graphics/SVG/1.1/DTD/svg11.dtd">
<!-- Generated by graphviz version 2.38.0 (20140413.2041)
 -->
<!-- Title: Application Pages: 1 -->
<svg width="690pt" height="142pt"
 viewBox="0.00 0.00 690.00 142.00" xmlns="http://www.w3.org/2000/svg" xmlns:xlink="http://www.w3.org/1999/xlink">
<g id="graph0" class="graph" transform="scale(1 1) rotate(0) translate(4 138)">
<title>Application</title>
<g id="clust1" class="cluster"><title>clusterClient</title>
</g>
<g id="clust2" class="cluster"><title>clusterServer</title>
</g>
<!-- browser -->
<g id="node1" class="node"><title>browser</title>
<polygon fill="#a89bb9" stroke="black" points="666,-77 589,-77 589,-41 666,-41 666,-77"/>
<text text-anchor="middle" x="627.5" y="-54.6" font-family="Times,serif" font-size="18.00">Browser</text>
</g>
<!-- app -->
<g id="node2" class="node"><title>app</title>
<polygon fill="#d28b71" stroke="black" points="348,-118 194,-118 194,-70 348,-70 348,-118"/>
<text text-anchor="middle" x="271" y="-99.6" font-family="Times,serif" font-size="18.00">App</text>
<text text-anchor="middle" x="271" y="-79.6" font-family="Times,serif" font-size="18.00">(Django Gunicorn)</text>
</g>
<!-- webserver -->
<g id="node5" class="node"><title>webserver</title>
<polygon fill="#d28b71" stroke="black" points="517,-83 423,-83 423,-35 517,-35 517,-83"/>
<text text-anchor="middle" x="470" y="-64.6" font-family="Times,serif" font-size="18.00">Webserver</text>
<text text-anchor="middle" x="470" y="-44.6" font-family="Times,serif" font-size="18.00">(NGINX)</text>
</g>
<!-- app&#45;&gt;webserver -->
<g id="edge2" class="edge"><title>app&#45;&gt;webserver</title>
<path fill="none" stroke="black" d="M358.31,-78.6658C376.73,-75.3931 395.728,-72.0178 412.674,-69.0072"/>
<polygon fill="black" stroke="black" points="357.399,-75.2727 348.165,-80.4681 358.623,-82.1648 357.399,-75.2727"/>
<polygon fill="black" stroke="black" points="413.702,-72.3794 422.936,-67.184 412.478,-65.4873 413.702,-72.3794"/>
<text text-anchor="middle" x="385.5" y="-79.8" font-family="Times,serif" font-size="14.00">Socket</text>
</g>
<!-- database -->
<g id="node3" class="node"><title>database</title>
<polygon fill="#d28b71" stroke="black" points="132,-118 16,-118 16,-70 132,-70 132,-118"/>
<text text-anchor="middle" x="74" y="-99.6" font-family="Times,serif" font-size="18.00">Database</text>
<text text-anchor="middle" x="74" y="-79.6" font-family="Times,serif" font-size="18.00">(PostgreSQL)</text>
</g>
<!-- database&#45;&gt;app -->
<g id="edge1" class="edge"><title>database&#45;&gt;app</title>
<path fill="none" stroke="black" d="M142.363,-94C155.755,-94 169.988,-94 183.906,-94"/>
<polygon fill="black" stroke="black" points="142.189,-90.5001 132.189,-94 142.189,-97.5001 142.189,-90.5001"/>
<polygon fill="black" stroke="black" points="183.969,-97.5001 193.969,-94 183.969,-90.5001 183.969,-97.5001"/>
<text text-anchor="middle" x="163" y="-97.8" font-family="Times,serif" font-size="14.00">TCP</text>
</g>
<!-- assets -->
<g id="node4" class="node"><title>assets</title>
<polygon fill="#d28b71" stroke="black" points="325.5,-52 216.5,-52 216.5,-16 325.5,-16 325.5,-52"/>
<text text-anchor="middle" x="271" y="-29.6" font-family="Times,serif" font-size="18.00">Static Assets</text>
</g>
<!-- assets&#45;&gt;webserver -->
<g id="edge3" class="edge"><title>assets&#45;&gt;webserver</title>
<path fill="none" stroke="black" d="M325.571,-40.7983C352.546,-44.2216 385.242,-48.3708 412.601,-51.8428"/>
<polygon fill="black" stroke="black" points="412.441,-55.3504 422.802,-53.1373 413.322,-48.4061 412.441,-55.3504"/>
</g>
<!-- webserver&#45;&gt;browser -->
<g id="edge4" class="edge"><title>webserver&#45;&gt;browser</title>
<path fill="none" stroke="black" d="M527.376,-59C544.135,-59 562.33,-59 578.503,-59"/>
<polygon fill="black" stroke="black" points="527.234,-55.5001 517.234,-59 527.234,-62.5001 527.234,-55.5001"/>
<polygon fill="black" stroke="black" points="578.803,-62.5001 588.803,-59 578.803,-55.5001 578.803,-62.5001"/>
<text text-anchor="middle" x="553" y="-62.8" font-family="Times,serif" font-size="14.00">HTTP</text>
</g>
</g>
</svg>
