<?xml version="1.0" encoding="UTF-8" standalone="no"?>
<!DOCTYPE svg PUBLIC "-//W3C//DTD SVG 1.1//EN"
 "http://www.w3.org/Graphics/SVG/1.1/DTD/svg11.dtd">
<!-- Generated by graphviz version 2.38.0 (20140413.2041)
 -->
<!-- Title: Application Pages: 1 -->
<svg width="607pt" height="155pt"
 viewBox="0.00 0.00 607.00 155.00" xmlns="http://www.w3.org/2000/svg" xmlns:xlink="http://www.w3.org/1999/xlink">
<g id="graph0" class="graph" transform="scale(1 1) rotate(0) translate(4 151)">
<title>Application</title>
<g id="clust1" class="cluster"><title>clusterClient</title>
</g>
<g id="clust2" class="cluster"><title>clusterServer</title>
<polygon fill="#f5eeeb" stroke="black" points="8,-8 8,-139 455,-139 455,-8 8,-8"/>
<text text-anchor="middle" x="231.5" y="-123.8" font-family="Times,serif" font-size="14.00">Single Server</text>
</g>
<!-- browser -->
<g id="node1" class="node"><title>browser</title>
<polygon fill="#a89bb9" stroke="black" points="583,-72 519,-72 519,-36 583,-36 583,-72"/>
<text text-anchor="middle" x="551" y="-50.3" font-family="Times,serif" font-size="14.00">Browser</text>
</g>
<!-- app -->
<g id="node2" class="node"><title>app</title>
<polygon fill="#d28b71" stroke="black" points="295,-108 172,-108 172,-70 295,-70 295,-108"/>
<text text-anchor="middle" x="233.5" y="-92.8" font-family="Times,serif" font-size="14.00">App</text>
<text text-anchor="middle" x="233.5" y="-77.8" font-family="Times,serif" font-size="14.00">(Django Gunicorn)</text>
</g>
<!-- webserver -->
<g id="node5" class="node"><title>webserver</title>
<polygon fill="#d28b71" stroke="black" points="447,-73 370,-73 370,-35 447,-35 447,-73"/>
<text text-anchor="middle" x="408.5" y="-57.8" font-family="Times,serif" font-size="14.00">Webserver</text>
<text text-anchor="middle" x="408.5" y="-42.8" font-family="Times,serif" font-size="14.00">(NGINX)</text>
</g>
<!-- app&#45;&gt;webserver -->
<g id="edge2" class="edge"><title>app&#45;&gt;webserver</title>
<path fill="none" stroke="black" d="M305.092,-74.7184C323.492,-70.9958 342.888,-67.0719 359.79,-63.6522"/>
<polygon fill="black" stroke="black" points="304.114,-71.3452 295.007,-76.7587 305.502,-78.2062 304.114,-71.3452"/>
<polygon fill="black" stroke="black" points="360.854,-67.008 369.962,-61.5945 359.466,-60.147 360.854,-67.008"/>
<text text-anchor="middle" x="332.5" y="-75.8" font-family="Times,serif" font-size="14.00">Socket</text>
</g>
<!-- database -->
<g id="node3" class="node"><title>database</title>
<polygon fill="#d28b71" stroke="black" points="110,-108 16,-108 16,-70 110,-70 110,-108"/>
<text text-anchor="middle" x="63" y="-92.8" font-family="Times,serif" font-size="14.00">Database</text>
<text text-anchor="middle" x="63" y="-77.8" font-family="Times,serif" font-size="14.00">(PostgreSQL)</text>
</g>
<!-- database&#45;&gt;app -->
<g id="edge1" class="edge"><title>database&#45;&gt;app</title>
<path fill="none" stroke="black" d="M120.158,-89C133.541,-89 147.992,-89 161.93,-89"/>
<polygon fill="black" stroke="black" points="120.043,-85.5001 110.043,-89 120.043,-92.5001 120.043,-85.5001"/>
<polygon fill="black" stroke="black" points="161.965,-92.5001 171.965,-89 161.965,-85.5001 161.965,-92.5001"/>
<text text-anchor="middle" x="141" y="-92.8" font-family="Times,serif" font-size="14.00">TCP</text>
</g>
<!-- assets -->
<g id="node4" class="node"><title>assets</title>
<polygon fill="#d28b71" stroke="black" points="277.5,-52 189.5,-52 189.5,-16 277.5,-16 277.5,-52"/>
<text text-anchor="middle" x="233.5" y="-30.3" font-family="Times,serif" font-size="14.00">Static Assets</text>
</g>
<!-- assets&#45;&gt;webserver -->
<g id="edge3" class="edge"><title>assets&#45;&gt;webserver</title>
<path fill="none" stroke="black" d="M277.709,-38.9953C302.602,-41.8731 333.94,-45.496 359.586,-48.4608"/>
<polygon fill="black" stroke="black" points="359.495,-51.9735 369.831,-49.6452 360.299,-45.0198 359.495,-51.9735"/>
</g>
<!-- webserver&#45;&gt;browser -->
<g id="edge4" class="edge"><title>webserver&#45;&gt;browser</title>
<path fill="none" stroke="black" d="M457.198,-54C473.912,-54 492.531,-54 508.679,-54"/>
<polygon fill="black" stroke="black" points="457.151,-50.5001 447.151,-54 457.151,-57.5001 457.151,-50.5001"/>
<polygon fill="black" stroke="black" points="508.889,-57.5001 518.889,-54 508.889,-50.5001 508.889,-57.5001"/>
<text text-anchor="middle" x="483" y="-57.8" font-family="Times,serif" font-size="14.00">HTTP</text>
</g>
</g>
</svg>
