<?xml version="1.0" encoding="UTF-8" standalone="no"?>
<!DOCTYPE svg PUBLIC "-//W3C//DTD SVG 1.1//EN"
 "http://www.w3.org/Graphics/SVG/1.1/DTD/svg11.dtd">
<!-- Generated by graphviz version 2.38.0 (20140413.2041)
 -->
<!-- Title: Application Pages: 1 -->
<svg width="598pt" height="155pt"
 viewBox="0.00 0.00 598.00 155.00" xmlns="http://www.w3.org/2000/svg" xmlns:xlink="http://www.w3.org/1999/xlink">
<g id="graph0" class="graph" transform="scale(1 1) rotate(0) translate(4 151)">
<title>Application</title>
<polygon fill="#fcf9f4" stroke="none" points="-4,4 -4,-151 594,-151 594,4 -4,4"/>
<g id="clust1" class="cluster"><title>clusterClient</title>
</g>
<g id="clust2" class="cluster"><title>clusterServer</title>
<polygon fill="#f5eeeb" stroke="black" points="8,-8 8,-139 446,-139 446,-8 8,-8"/>
<text text-anchor="middle" x="227" y="-123.8" font-family="Times,serif" font-size="14.00">Single Server</text>
</g>
<!-- browser -->
<g id="node1" class="node"><title>browser</title>
<polygon fill="#d28b71" stroke="black" points="574,-72 510,-72 510,-36 574,-36 574,-72"/>
<text text-anchor="middle" x="542" y="-50.3" font-family="Times,serif" font-size="14.00">Browser</text>
</g>
<!-- app -->
<g id="node2" class="node"><title>app</title>
<polygon fill="#d28b71" stroke="black" points="286,-108 173,-108 173,-70 286,-70 286,-108"/>
<text text-anchor="middle" x="229.5" y="-92.8" font-family="Times,serif" font-size="14.00">App</text>
<text text-anchor="middle" x="229.5" y="-77.8" font-family="Times,serif" font-size="14.00">(Django uWSGI)</text>
</g>
<!-- webserver -->
<g id="node5" class="node"><title>webserver</title>
<polygon fill="#d28b71" stroke="black" points="438,-73 361,-73 361,-35 438,-35 438,-73"/>
<text text-anchor="middle" x="399.5" y="-57.8" font-family="Times,serif" font-size="14.00">Webserver</text>
<text text-anchor="middle" x="399.5" y="-42.8" font-family="Times,serif" font-size="14.00">(NGINX)</text>
</g>
<!-- app&#45;&gt;webserver -->
<g id="edge2" class="edge"><title>app&#45;&gt;webserver</title>
<path fill="none" stroke="black" d="M296.344,-75.2824C314.453,-71.5099 333.743,-67.4911 350.627,-63.9734"/>
<polygon fill="black" stroke="black" points="295.518,-71.8795 286.442,-77.3455 296.945,-78.7323 295.518,-71.8795"/>
<polygon fill="black" stroke="black" points="351.722,-67.3207 360.798,-61.8547 350.294,-60.4679 351.722,-67.3207"/>
<text text-anchor="middle" x="323.5" y="-76.8" font-family="Times,serif" font-size="14.00">Socket</text>
</g>
<!-- database -->
<g id="node3" class="node"><title>database</title>
<polygon fill="#d28b71" stroke="black" points="110,-108 16,-108 16,-70 110,-70 110,-108"/>
<text text-anchor="middle" x="63" y="-92.8" font-family="Times,serif" font-size="14.00">Database</text>
<text text-anchor="middle" x="63" y="-77.8" font-family="Times,serif" font-size="14.00">(PostgreSQL)</text>
</g>
<!-- database&#45;&gt;app -->
<g id="edge1" class="edge"><title>database&#45;&gt;app</title>
<path fill="none" stroke="black" d="M120.573,-89C134.209,-89 148.892,-89 162.901,-89"/>
<polygon fill="black" stroke="black" points="120.26,-85.5001 110.26,-89 120.26,-92.5001 120.26,-85.5001"/>
<polygon fill="black" stroke="black" points="162.959,-92.5001 172.959,-89 162.959,-85.5001 162.959,-92.5001"/>
<text text-anchor="middle" x="141.5" y="-92.8" font-family="Times,serif" font-size="14.00">SQL</text>
</g>
<!-- assets -->
<g id="node4" class="node"><title>assets</title>
<polygon fill="#d28b71" stroke="black" points="273.5,-52 185.5,-52 185.5,-16 273.5,-16 273.5,-52"/>
<text text-anchor="middle" x="229.5" y="-30.3" font-family="Times,serif" font-size="14.00">Static Assets</text>
</g>
<!-- assets&#45;&gt;webserver -->
<g id="edge3" class="edge"><title>assets&#45;&gt;webserver</title>
<path fill="none" stroke="black" d="M273.764,-39.1505C297.328,-41.9557 326.535,-45.4328 350.762,-48.3169"/>
<polygon fill="black" stroke="black" points="350.465,-51.8062 360.809,-49.513 351.293,-44.8553 350.465,-51.8062"/>
</g>
<!-- webserver&#45;&gt;browser -->
<g id="edge4" class="edge"><title>webserver&#45;&gt;browser</title>
<path fill="none" stroke="black" d="M448.198,-54C464.912,-54 483.531,-54 499.679,-54"/>
<polygon fill="black" stroke="black" points="448.151,-50.5001 438.151,-54 448.151,-57.5001 448.151,-50.5001"/>
<polygon fill="black" stroke="black" points="499.889,-57.5001 509.889,-54 499.889,-50.5001 499.889,-57.5001"/>
<text text-anchor="middle" x="474" y="-57.8" font-family="Times,serif" font-size="14.00">HTTP</text>
</g>
</g>
</svg>
