<?xml version="1.0" encoding="UTF-8" standalone="no"?>
<!DOCTYPE svg PUBLIC "-//W3C//DTD SVG 1.1//EN"
 "http://www.w3.org/Graphics/SVG/1.1/DTD/svg11.dtd">
<!-- Generated by graphviz version 2.38.0 (20140413.2041)
 -->
<!-- Title: KubernetesArchitecture Pages: 1 -->
<svg width="407pt" height="398pt"
 viewBox="0.00 0.00 407.00 398.00" xmlns="http://www.w3.org/2000/svg" xmlns:xlink="http://www.w3.org/1999/xlink">
<g id="graph0" class="graph" transform="scale(1 1) rotate(0) translate(4 394)">
<title>KubernetesArchitecture</title>
<g id="clust1" class="cluster"><title>clusterClient</title>
</g>
<g id="clust2" class="cluster"><title>clusterMaster</title>
<polygon fill="#f5eeeb" stroke="#b8afad" points="111,-63 111,-300 254,-300 254,-63 111,-63"/>
<text text-anchor="middle" x="182.5" y="-284.8" font-family="Times,serif" font-size="14.00" fill="#b8afad">Kubernetes Master</text>
</g>
<g id="clust3" class="cluster"><title>clusterNode1</title>
<polygon fill="#f5eeeb" stroke="#b8afad" points="274,-199 274,-382 399,-382 399,-199 274,-199"/>
<text text-anchor="middle" x="336.5" y="-366.8" font-family="Times,serif" font-size="14.00" fill="#b8afad">Kubernetes Node 1</text>
</g>
<g id="clust4" class="cluster"><title>clusterNode2</title>
<polygon fill="#f5eeeb" stroke="#b8afad" points="274,-8 274,-191 399,-191 399,-8 274,-8"/>
<text text-anchor="middle" x="336.5" y="-175.8" font-family="Times,serif" font-size="14.00" fill="#b8afad">Kubernetes Node 2</text>
</g>
<!-- client -->
<g id="node1" class="node"><title>client</title>
<polygon fill="#a89bb9" stroke="black" points="83,-216 16,-216 16,-178 83,-178 83,-216"/>
<text text-anchor="middle" x="49.5" y="-200.8" font-family="Times,serif" font-size="14.00">Client</text>
<text text-anchor="middle" x="49.5" y="-185.8" font-family="Times,serif" font-size="14.00">(kubectl)</text>
</g>
<!-- API -->
<g id="node3" class="node"><title>API</title>
<polygon fill="#d28b71" stroke="black" points="222,-215 143,-215 143,-179 222,-179 222,-215"/>
<text text-anchor="middle" x="182.5" y="-193.3" font-family="Times,serif" font-size="14.00">API Server</text>
</g>
<!-- client&#45;&gt;API -->
<g id="edge1" class="edge"><title>client&#45;&gt;API</title>
<path fill="none" stroke="black" d="M83.2189,-197C98.1554,-197 116.156,-197 132.649,-197"/>
<polygon fill="black" stroke="black" points="132.682,-200.5 142.682,-197 132.682,-193.5 132.682,-200.5"/>
</g>
<!-- scheduler -->
<g id="node2" class="node"><title>scheduler</title>
<polygon fill="#d28b71" stroke="black" points="218.5,-269 146.5,-269 146.5,-233 218.5,-233 218.5,-269"/>
<text text-anchor="middle" x="182.5" y="-247.3" font-family="Times,serif" font-size="14.00">Scheduler</text>
</g>
<!-- kubelet -->
<g id="node7" class="node"><title>kubelet</title>
<polygon fill="#d28b71" stroke="black" points="365.5,-297 307.5,-297 307.5,-261 365.5,-261 365.5,-297"/>
<text text-anchor="middle" x="336.5" y="-275.3" font-family="Times,serif" font-size="14.00">kubelet</text>
</g>
<!-- API&#45;&gt;kubelet -->
<g id="edge2" class="edge"><title>API&#45;&gt;kubelet</title>
<path fill="none" stroke="black" d="M222.215,-207.234C233.184,-211.306 244.668,-216.785 254,-224 262.885,-230.869 263.104,-237.55 267.295,-244.433"/>
<polygon fill="black" stroke="black" points="264.748,-246.837 274,-252 269.988,-242.194 264.748,-246.837"/>
</g>
<!-- kubelet2 -->
<g id="node10" class="node"><title>kubelet2</title>
<polygon fill="#d28b71" stroke="black" points="365.5,-106 307.5,-106 307.5,-70 365.5,-70 365.5,-106"/>
<text text-anchor="middle" x="336.5" y="-84.3" font-family="Times,serif" font-size="14.00">kubelet</text>
</g>
<!-- API&#45;&gt;kubelet2 -->
<g id="edge3" class="edge"><title>API&#45;&gt;kubelet2</title>
<path fill="none" stroke="black" d="M222.088,-188.802C233.563,-184.759 245.363,-178.785 254,-170 269.529,-154.206 260.216,-139.19 268.092,-123.361"/>
<polygon fill="black" stroke="black" points="271.087,-125.187 274,-115 265.371,-121.147 271.087,-125.187"/>
</g>
<!-- controller_manager -->
<g id="node4" class="node"><title>controller_manager</title>
<polygon fill="#d28b71" stroke="black" points="246,-161 119,-161 119,-125 246,-125 246,-161"/>
<text text-anchor="middle" x="182.5" y="-139.3" font-family="Times,serif" font-size="14.00">Controller Manager</text>
</g>
<!-- etcd -->
<g id="node5" class="node"><title>etcd</title>
<polygon fill="#d28b71" stroke="black" points="209.5,-107 155.5,-107 155.5,-71 209.5,-71 209.5,-107"/>
<text text-anchor="middle" x="182.5" y="-85.3" font-family="Times,serif" font-size="14.00">etcd</text>
</g>
<!-- Docker -->
<g id="node6" class="node"><title>Docker</title>
<polygon fill="#d28b71" stroke="black" points="365.5,-351 307.5,-351 307.5,-315 365.5,-315 365.5,-351"/>
<text text-anchor="middle" x="336.5" y="-329.3" font-family="Times,serif" font-size="14.00">Docker</text>
</g>
<!-- Proxy -->
<g id="node8" class="node"><title>Proxy</title>
<polygon fill="#d28b71" stroke="black" points="377,-243 296,-243 296,-207 377,-207 377,-243"/>
<text text-anchor="middle" x="336.5" y="-221.3" font-family="Times,serif" font-size="14.00">kube&#45;proxy</text>
</g>
<!-- Docker2 -->
<g id="node9" class="node"><title>Docker2</title>
<polygon fill="#d28b71" stroke="black" points="365.5,-160 307.5,-160 307.5,-124 365.5,-124 365.5,-160"/>
<text text-anchor="middle" x="336.5" y="-138.3" font-family="Times,serif" font-size="14.00">Docker</text>
</g>
<!-- Proxy2 -->
<g id="node11" class="node"><title>Proxy2</title>
<polygon fill="#d28b71" stroke="black" points="377,-52 296,-52 296,-16 377,-16 377,-52"/>
<text text-anchor="middle" x="336.5" y="-30.3" font-family="Times,serif" font-size="14.00">kube&#45;proxy</text>
</g>
</g>
</svg>
