<?xml version="1.0" encoding="UTF-8" standalone="no"?>
<!DOCTYPE svg PUBLIC "-//W3C//DTD SVG 1.1//EN"
 "http://www.w3.org/Graphics/SVG/1.1/DTD/svg11.dtd">
<!-- Generated by graphviz version 2.38.0 (20140413.2041)
 -->
<!-- Title: Application Pages: 1 -->
<svg width="615pt" height="271pt"
 viewBox="0.00 0.00 615.00 271.00" xmlns="http://www.w3.org/2000/svg" xmlns:xlink="http://www.w3.org/1999/xlink">
<g id="graph0" class="graph" transform="scale(1 1) rotate(0) translate(4 267)">
<title>Application</title>
<g id="clust1" class="cluster"><title>clusterClient</title>
</g>
<g id="clust2" class="cluster"><title>clusterDatabaseServer</title>
<polygon fill="#f5eeeb" stroke="black" points="8,-93 8,-170 118,-170 118,-93 8,-93"/>
<text text-anchor="middle" x="63" y="-154.8" font-family="Times,serif" font-size="14.00">Database Server</text>
</g>
<g id="clust3" class="cluster"><title>clusterAppServer</title>
<polygon fill="#f5eeeb" stroke="black" points="164,-178 164,-255 303,-255 303,-178 164,-178"/>
<text text-anchor="middle" x="233.5" y="-239.8" font-family="Times,serif" font-size="14.00">Application Server 1</text>
</g>
<g id="clust4" class="cluster"><title>clusterAppServer2</title>
<polygon fill="#f5eeeb" stroke="black" points="164,-93 164,-170 303,-170 303,-93 164,-93"/>
<text text-anchor="middle" x="233.5" y="-154.8" font-family="Times,serif" font-size="14.00">Application Server 2</text>
</g>
<g id="clust5" class="cluster"><title>clusterAppServer3</title>
<polygon fill="#f5eeeb" stroke="black" points="164,-8 164,-85 303,-85 303,-8 164,-8"/>
<text text-anchor="middle" x="233.5" y="-69.8" font-family="Times,serif" font-size="14.00">Application Server 3</text>
</g>
<g id="clust6" class="cluster"><title>clusterLoadBalancer</title>
<polygon fill="#f5eeeb" stroke="black" points="359,-39 359,-170 463,-170 463,-39 359,-39"/>
<text text-anchor="middle" x="411" y="-154.8" font-family="Times,serif" font-size="14.00">Load Balancer</text>
</g>
<!-- browser -->
<g id="node1" class="node"><title>browser</title>
<polygon fill="#a89bb9" stroke="black" points="591,-138 527,-138 527,-102 591,-102 591,-138"/>
<text text-anchor="middle" x="559" y="-116.3" font-family="Times,serif" font-size="14.00">Browser</text>
</g>
<!-- database -->
<g id="node2" class="node"><title>database</title>
<polygon fill="#d28b71" stroke="black" points="110,-139 16,-139 16,-101 110,-101 110,-139"/>
<text text-anchor="middle" x="63" y="-123.8" font-family="Times,serif" font-size="14.00">Database</text>
<text text-anchor="middle" x="63" y="-108.8" font-family="Times,serif" font-size="14.00">(PostgreSQL)</text>
</g>
<!-- app -->
<g id="node3" class="node"><title>app</title>
<polygon fill="#d28b71" stroke="black" points="295,-224 172,-224 172,-186 295,-186 295,-224"/>
<text text-anchor="middle" x="233.5" y="-208.8" font-family="Times,serif" font-size="14.00">App</text>
<text text-anchor="middle" x="233.5" y="-193.8" font-family="Times,serif" font-size="14.00">(Django Gunicorn)</text>
</g>
<!-- database&#45;&gt;app -->
<g id="edge1" class="edge"><title>database&#45;&gt;app</title>
<path fill="none" stroke="black" d="M106.824,-143.979C124.396,-153.594 145.031,-164.6 164,-174 169.17,-176.562 174.597,-179.163 180.038,-181.714"/>
<polygon fill="black" stroke="black" points="108.388,-140.845 97.9387,-139.093 105.015,-146.979 108.388,-140.845"/>
<polygon fill="black" stroke="black" points="178.62,-184.915 189.165,-185.944 181.564,-178.564 178.62,-184.915"/>
<text text-anchor="middle" x="141" y="-171.8" font-family="Times,serif" font-size="14.00">TCP</text>
</g>
<!-- app2 -->
<g id="node4" class="node"><title>app2</title>
<polygon fill="#d28b71" stroke="black" points="295,-139 172,-139 172,-101 295,-101 295,-139"/>
<text text-anchor="middle" x="233.5" y="-123.8" font-family="Times,serif" font-size="14.00">App</text>
<text text-anchor="middle" x="233.5" y="-108.8" font-family="Times,serif" font-size="14.00">(Django Gunicorn)</text>
</g>
<!-- database&#45;&gt;app2 -->
<g id="edge3" class="edge"><title>database&#45;&gt;app2</title>
<path fill="none" stroke="black" d="M120.158,-120C133.541,-120 147.992,-120 161.93,-120"/>
<polygon fill="black" stroke="black" points="120.043,-116.5 110.043,-120 120.043,-123.5 120.043,-116.5"/>
<polygon fill="black" stroke="black" points="161.965,-123.5 171.965,-120 161.965,-116.5 161.965,-123.5"/>
<text text-anchor="middle" x="141" y="-123.8" font-family="Times,serif" font-size="14.00">TCP</text>
</g>
<!-- app3 -->
<g id="node5" class="node"><title>app3</title>
<polygon fill="#d28b71" stroke="black" points="295,-54 172,-54 172,-16 295,-16 295,-54"/>
<text text-anchor="middle" x="233.5" y="-38.8" font-family="Times,serif" font-size="14.00">App</text>
<text text-anchor="middle" x="233.5" y="-23.8" font-family="Times,serif" font-size="14.00">(Django Gunicorn)</text>
</g>
<!-- database&#45;&gt;app3 -->
<g id="edge5" class="edge"><title>database&#45;&gt;app3</title>
<path fill="none" stroke="black" d="M110.898,-96.3421C134.269,-84.5525 162.448,-70.3376 185.793,-58.5614"/>
<polygon fill="black" stroke="black" points="109.167,-93.2955 101.815,-100.924 112.319,-99.5453 109.167,-93.2955"/>
<polygon fill="black" stroke="black" points="187.46,-61.6409 194.812,-54.012 184.307,-55.391 187.46,-61.6409"/>
<text text-anchor="middle" x="141" y="-91.8" font-family="Times,serif" font-size="14.00">TCP</text>
</g>
<!-- webserver -->
<g id="node6" class="node"><title>webserver</title>
<polygon fill="#d28b71" stroke="black" points="452.5,-139 369.5,-139 369.5,-101 452.5,-101 452.5,-139"/>
<text text-anchor="middle" x="411" y="-123.8" font-family="Times,serif" font-size="14.00">Web Server</text>
<text text-anchor="middle" x="411" y="-108.8" font-family="Times,serif" font-size="14.00">(NGINX)</text>
</g>
<!-- app&#45;&gt;webserver -->
<g id="edge2" class="edge"><title>app&#45;&gt;webserver</title>
<path fill="none" stroke="black" d="M286.653,-181.676C292.187,-179.118 297.719,-176.526 303,-174 323.164,-164.355 345.246,-153.296 364.086,-143.708"/>
<polygon fill="black" stroke="black" points="285.011,-178.578 277.382,-185.93 287.93,-184.941 285.011,-178.578"/>
<polygon fill="black" stroke="black" points="365.736,-146.795 373.052,-139.132 362.554,-140.561 365.736,-146.795"/>
<text text-anchor="middle" x="331" y="-171.8" font-family="Times,serif" font-size="14.00">HTTP</text>
</g>
<!-- app2&#45;&gt;webserver -->
<g id="edge4" class="edge"><title>app2&#45;&gt;webserver</title>
<path fill="none" stroke="black" d="M305.569,-120C323.537,-120 342.474,-120 359.215,-120"/>
<polygon fill="black" stroke="black" points="305.389,-116.5 295.389,-120 305.389,-123.5 305.389,-116.5"/>
<polygon fill="black" stroke="black" points="359.326,-123.5 369.326,-120 359.326,-116.5 359.326,-123.5"/>
<text text-anchor="middle" x="331" y="-123.8" font-family="Times,serif" font-size="14.00">HTTP</text>
</g>
<!-- app3&#45;&gt;webserver -->
<g id="edge6" class="edge"><title>app3&#45;&gt;webserver</title>
<path fill="none" stroke="black" d="M282.986,-58.4832C307.492,-70.3522 337.145,-84.7142 361.634,-96.5751"/>
<polygon fill="black" stroke="black" points="284.411,-55.2847 273.886,-54.0757 281.36,-61.5847 284.411,-55.2847"/>
<polygon fill="black" stroke="black" points="360.22,-99.779 370.746,-100.988 363.272,-93.479 360.22,-99.779"/>
<text text-anchor="middle" x="331" y="-94.8" font-family="Times,serif" font-size="14.00">HTTP</text>
</g>
<!-- webserver&#45;&gt;browser -->
<g id="edge7" class="edge"><title>webserver&#45;&gt;browser</title>
<path fill="none" stroke="black" d="M462.86,-120C480.487,-120 500.018,-120 516.773,-120"/>
<polygon fill="black" stroke="black" points="462.669,-116.5 452.669,-120 462.669,-123.5 462.669,-116.5"/>
<polygon fill="black" stroke="black" points="516.805,-123.5 526.805,-120 516.805,-116.5 516.805,-123.5"/>
<text text-anchor="middle" x="491" y="-123.8" font-family="Times,serif" font-size="14.00">HTTP</text>
</g>
<!-- assets -->
<g id="node7" class="node"><title>assets</title>
<polygon fill="#d28b71" stroke="black" points="455,-83 367,-83 367,-47 455,-47 455,-83"/>
<text text-anchor="middle" x="411" y="-61.3" font-family="Times,serif" font-size="14.00">Static Assets</text>
</g>
</g>
</svg>
