<?xml version="1.0" encoding="UTF-8" standalone="no"?>
<!DOCTYPE svg PUBLIC "-//W3C//DTD SVG 1.1//EN"
 "http://www.w3.org/Graphics/SVG/1.1/DTD/svg11.dtd">
<!-- Generated by graphviz version 2.38.0 (20140413.2041)
 -->
<!-- Title: Application Pages: 1 -->
<svg width="609pt" height="271pt"
 viewBox="0.00 0.00 609.00 271.00" xmlns="http://www.w3.org/2000/svg" xmlns:xlink="http://www.w3.org/1999/xlink">
<g id="graph0" class="graph" transform="scale(1 1) rotate(0) translate(4 267)">
<title>Application</title>
<polygon fill="#fcf9f4" stroke="none" points="-4,4 -4,-267 605,-267 605,4 -4,4"/>
<g id="clust1" class="cluster"><title>clusterClient</title>
</g>
<g id="clust2" class="cluster"><title>clusterDatabaseServer</title>
<polygon fill="#f5eeeb" stroke="black" points="8,-93 8,-170 118,-170 118,-93 8,-93"/>
<text text-anchor="middle" x="63" y="-154.8" font-family="Times,serif" font-size="14.00">Database Server</text>
</g>
<g id="clust3" class="cluster"><title>clusterAppServer</title>
<polygon fill="#f5eeeb" stroke="black" points="164,-178 164,-255 297,-255 297,-178 164,-178"/>
<text text-anchor="middle" x="230.5" y="-239.8" font-family="Times,serif" font-size="14.00">Application Server 1</text>
</g>
<g id="clust4" class="cluster"><title>clusterAppServer2</title>
<polygon fill="#f5eeeb" stroke="black" points="164,-93 164,-170 297,-170 297,-93 164,-93"/>
<text text-anchor="middle" x="230.5" y="-154.8" font-family="Times,serif" font-size="14.00">Application Server 2</text>
</g>
<g id="clust5" class="cluster"><title>clusterAppServer3</title>
<polygon fill="#f5eeeb" stroke="black" points="164,-8 164,-85 297,-85 297,-8 164,-8"/>
<text text-anchor="middle" x="230.5" y="-69.8" font-family="Times,serif" font-size="14.00">Application Server 3</text>
</g>
<g id="clust6" class="cluster"><title>clusterLoadBalancer</title>
<polygon fill="#f5eeeb" stroke="black" points="353,-39 353,-170 457,-170 457,-39 353,-39"/>
<text text-anchor="middle" x="405" y="-154.8" font-family="Times,serif" font-size="14.00">Load Balancer</text>
</g>
<!-- browser -->
<g id="node1" class="node"><title>browser</title>
<polygon fill="#d28b71" stroke="black" points="585,-138 521,-138 521,-102 585,-102 585,-138"/>
<text text-anchor="middle" x="553" y="-116.3" font-family="Times,serif" font-size="14.00">Browser</text>
</g>
<!-- database -->
<g id="node2" class="node"><title>database</title>
<polygon fill="#d28b71" stroke="black" points="110,-139 16,-139 16,-101 110,-101 110,-139"/>
<text text-anchor="middle" x="63" y="-123.8" font-family="Times,serif" font-size="14.00">Database</text>
<text text-anchor="middle" x="63" y="-108.8" font-family="Times,serif" font-size="14.00">(PostgreSQL)</text>
</g>
<!-- app -->
<g id="node3" class="node"><title>app</title>
<polygon fill="#d28b71" stroke="black" points="287,-224 174,-224 174,-186 287,-186 287,-224"/>
<text text-anchor="middle" x="230.5" y="-208.8" font-family="Times,serif" font-size="14.00">App</text>
<text text-anchor="middle" x="230.5" y="-193.8" font-family="Times,serif" font-size="14.00">(Django uWSGI)</text>
</g>
<!-- database&#45;&gt;app -->
<g id="edge1" class="edge"><title>database&#45;&gt;app</title>
<path fill="none" stroke="black" d="M107.325,-144.044C124.817,-153.581 145.262,-164.515 164,-174 168.911,-176.486 174.056,-179.027 179.212,-181.533"/>
<polygon fill="black" stroke="black" points="108.924,-140.929 98.4712,-139.199 105.563,-147.07 108.924,-140.929"/>
<polygon fill="black" stroke="black" points="177.929,-184.8 188.457,-185.985 180.966,-178.493 177.929,-184.8"/>
<text text-anchor="middle" x="141" y="-171.8" font-family="Times,serif" font-size="14.00">TCP</text>
</g>
<!-- app2 -->
<g id="node4" class="node"><title>app2</title>
<polygon fill="#d28b71" stroke="black" points="287,-139 174,-139 174,-101 287,-101 287,-139"/>
<text text-anchor="middle" x="230.5" y="-123.8" font-family="Times,serif" font-size="14.00">App</text>
<text text-anchor="middle" x="230.5" y="-108.8" font-family="Times,serif" font-size="14.00">(Django uWSGI)</text>
</g>
<!-- database&#45;&gt;app2 -->
<g id="edge3" class="edge"><title>database&#45;&gt;app2</title>
<path fill="none" stroke="black" d="M120.102,-120C134.084,-120 149.202,-120 163.609,-120"/>
<polygon fill="black" stroke="black" points="120.101,-116.5 110.101,-120 120.101,-123.5 120.101,-116.5"/>
<polygon fill="black" stroke="black" points="163.947,-123.5 173.947,-120 163.947,-116.5 163.947,-123.5"/>
<text text-anchor="middle" x="141" y="-123.8" font-family="Times,serif" font-size="14.00">TCP</text>
</g>
<!-- app3 -->
<g id="node5" class="node"><title>app3</title>
<polygon fill="#d28b71" stroke="black" points="287,-54 174,-54 174,-16 287,-16 287,-54"/>
<text text-anchor="middle" x="230.5" y="-38.8" font-family="Times,serif" font-size="14.00">App</text>
<text text-anchor="middle" x="230.5" y="-23.8" font-family="Times,serif" font-size="14.00">(Django uWSGI)</text>
</g>
<!-- database&#45;&gt;app3 -->
<g id="edge5" class="edge"><title>database&#45;&gt;app3</title>
<path fill="none" stroke="black" d="M110.063,-96.3421C132.917,-84.6047 160.451,-70.4633 183.32,-58.7178"/>
<polygon fill="black" stroke="black" points="108.438,-93.2423 101.141,-100.924 111.636,-99.4691 108.438,-93.2423"/>
<polygon fill="black" stroke="black" points="185.186,-61.6941 192.483,-54.012 181.988,-55.4673 185.186,-61.6941"/>
<text text-anchor="middle" x="141" y="-89.8" font-family="Times,serif" font-size="14.00">TCP</text>
</g>
<!-- webserver -->
<g id="node6" class="node"><title>webserver</title>
<polygon fill="#d28b71" stroke="black" points="446.5,-139 363.5,-139 363.5,-101 446.5,-101 446.5,-139"/>
<text text-anchor="middle" x="405" y="-123.8" font-family="Times,serif" font-size="14.00">Web Server</text>
<text text-anchor="middle" x="405" y="-108.8" font-family="Times,serif" font-size="14.00">(NGINX)</text>
</g>
<!-- app&#45;&gt;webserver -->
<g id="edge2" class="edge"><title>app&#45;&gt;webserver</title>
<path fill="none" stroke="black" d="M281.496,-181.498C286.74,-178.985 291.985,-176.452 297,-174 316.92,-164.261 338.797,-153.274 357.549,-143.764"/>
<polygon fill="black" stroke="black" points="279.626,-178.512 272.108,-185.977 282.64,-184.83 279.626,-178.512"/>
<polygon fill="black" stroke="black" points="359.151,-146.876 366.482,-139.226 355.981,-140.635 359.151,-146.876"/>
<text text-anchor="middle" x="325" y="-171.8" font-family="Times,serif" font-size="14.00">HTTP</text>
</g>
<!-- app2&#45;&gt;webserver -->
<g id="edge4" class="edge"><title>app2&#45;&gt;webserver</title>
<path fill="none" stroke="black" d="M297.102,-120C315.72,-120 335.702,-120 353.293,-120"/>
<polygon fill="black" stroke="black" points="297.03,-116.5 287.03,-120 297.03,-123.5 297.03,-116.5"/>
<polygon fill="black" stroke="black" points="353.345,-123.5 363.345,-120 353.345,-116.5 353.345,-123.5"/>
<text text-anchor="middle" x="325" y="-123.8" font-family="Times,serif" font-size="14.00">HTTP</text>
</g>
<!-- app3&#45;&gt;webserver -->
<g id="edge6" class="edge"><title>app3&#45;&gt;webserver</title>
<path fill="none" stroke="black" d="M279.512,-58.6579C303.437,-70.4475 332.285,-84.6624 356.184,-96.4386"/>
<polygon fill="black" stroke="black" points="280.73,-55.3562 270.212,-54.0757 277.635,-61.6353 280.73,-55.3562"/>
<polygon fill="black" stroke="black" points="354.9,-99.7074 365.417,-100.988 357.994,-93.4283 354.9,-99.7074"/>
<text text-anchor="middle" x="325" y="-91.8" font-family="Times,serif" font-size="14.00">HTTP</text>
</g>
<!-- webserver&#45;&gt;browser -->
<g id="edge7" class="edge"><title>webserver&#45;&gt;browser</title>
<path fill="none" stroke="black" d="M456.86,-120C474.487,-120 494.018,-120 510.773,-120"/>
<polygon fill="black" stroke="black" points="456.669,-116.5 446.669,-120 456.669,-123.5 456.669,-116.5"/>
<polygon fill="black" stroke="black" points="510.805,-123.5 520.805,-120 510.805,-116.5 510.805,-123.5"/>
<text text-anchor="middle" x="485" y="-123.8" font-family="Times,serif" font-size="14.00">HTTP</text>
</g>
<!-- assets -->
<g id="node7" class="node"><title>assets</title>
<polygon fill="#d28b71" stroke="black" points="449,-83 361,-83 361,-47 449,-47 449,-83"/>
<text text-anchor="middle" x="405" y="-61.3" font-family="Times,serif" font-size="14.00">Static Assets</text>
</g>
</g>
</svg>
