<?xml version="1.0" encoding="UTF-8" standalone="no"?>
<!DOCTYPE svg PUBLIC "-//W3C//DTD SVG 1.1//EN"
 "http://www.w3.org/Graphics/SVG/1.1/DTD/svg11.dtd">
<!-- Generated by graphviz version 2.38.0 (20140413.2041)
 -->
<!-- Title: Kubernetes Pages: 1 -->
<svg width="700pt" height="242pt"
 viewBox="0.00 0.00 700.00 242.00" xmlns="http://www.w3.org/2000/svg" xmlns:xlink="http://www.w3.org/1999/xlink">
<g id="graph0" class="graph" transform="scale(1 1) rotate(0) translate(4 238)">
<title>Kubernetes</title>
<g id="clust1" class="cluster"><title>clusterClient</title>
</g>
<g id="clust2" class="cluster"><title>clusterNode1</title>
<polygon fill="#f5eeeb" stroke="#b8afad" points="8,-39 8,-170 125,-170 125,-39 8,-39"/>
<text text-anchor="middle" x="66.5" y="-154.8" font-family="Times,serif" font-size="14.00" fill="#b8afad">Node 1</text>
</g>
<g id="clust3" class="cluster"><title>clusterNode2</title>
<polygon fill="#f5eeeb" stroke="#b8afad" points="171,-93 171,-226 310,-226 310,-93 171,-93"/>
<text text-anchor="middle" x="240.5" y="-210.8" font-family="Times,serif" font-size="14.00" fill="#b8afad">Node 2</text>
</g>
<g id="clust4" class="cluster"><title>clusterNode3</title>
<polygon fill="#f5eeeb" stroke="#b8afad" points="171,-8 171,-85 310,-85 310,-8 171,-8"/>
<text text-anchor="middle" x="240.5" y="-69.8" font-family="Times,serif" font-size="14.00" fill="#b8afad">Node 3</text>
</g>
<!-- browser -->
<g id="node1" class="node"><title>browser</title>
<polygon fill="#a89bb9" stroke="black" points="676,-102 612,-102 612,-66 676,-66 676,-102"/>
<text text-anchor="middle" x="644" y="-80.3" font-family="Times,serif" font-size="14.00">Browser</text>
</g>
<!-- database -->
<g id="node2" class="node"><title>database</title>
<polygon fill="#d28b71" stroke="black" points="113.5,-139 19.5,-139 19.5,-101 113.5,-101 113.5,-139"/>
<text text-anchor="middle" x="66.5" y="-123.8" font-family="Times,serif" font-size="14.00">Database</text>
<text text-anchor="middle" x="66.5" y="-108.8" font-family="Times,serif" font-size="14.00">(PostgreSQL)</text>
</g>
<!-- app -->
<g id="node4" class="node"><title>app</title>
<polygon fill="#d28b71" stroke="black" points="302,-195 179,-195 179,-157 302,-157 302,-195"/>
<text text-anchor="middle" x="240.5" y="-179.8" font-family="Times,serif" font-size="14.00">App</text>
<text text-anchor="middle" x="240.5" y="-164.8" font-family="Times,serif" font-size="14.00">(Django Gunicorn)</text>
</g>
<!-- database&#45;&gt;app -->
<g id="edge1" class="edge"><title>database&#45;&gt;app</title>
<path fill="none" stroke="black" d="M123.305,-138.169C138.573,-143.14 155.296,-148.585 171.179,-153.756"/>
<polygon fill="black" stroke="black" points="124.185,-134.775 113.593,-135.007 122.018,-141.431 124.185,-134.775"/>
<polygon fill="black" stroke="black" points="170.346,-157.166 180.939,-156.933 172.513,-150.51 170.346,-157.166"/>
<text text-anchor="middle" x="148" y="-152.8" font-family="Times,serif" font-size="14.00">TCP</text>
</g>
<!-- app2 -->
<g id="node5" class="node"><title>app2</title>
<polygon fill="#d28b71" stroke="black" points="302,-139 179,-139 179,-101 302,-101 302,-139"/>
<text text-anchor="middle" x="240.5" y="-123.8" font-family="Times,serif" font-size="14.00">App</text>
<text text-anchor="middle" x="240.5" y="-108.8" font-family="Times,serif" font-size="14.00">(Django Gunicorn)</text>
</g>
<!-- database&#45;&gt;app2 -->
<g id="edge3" class="edge"><title>database&#45;&gt;app2</title>
<path fill="none" stroke="black" d="M123.71,-120C138.01,-120 153.564,-120 168.495,-120"/>
<polygon fill="black" stroke="black" points="123.593,-116.5 113.593,-120 123.593,-123.5 123.593,-116.5"/>
<polygon fill="black" stroke="black" points="168.71,-123.5 178.71,-120 168.71,-116.5 168.71,-123.5"/>
<text text-anchor="middle" x="148" y="-123.8" font-family="Times,serif" font-size="14.00">TCP</text>
</g>
<!-- app3 -->
<g id="node6" class="node"><title>app3</title>
<polygon fill="#d28b71" stroke="black" points="302,-54 179,-54 179,-16 302,-16 302,-54"/>
<text text-anchor="middle" x="240.5" y="-38.8" font-family="Times,serif" font-size="14.00">App</text>
<text text-anchor="middle" x="240.5" y="-23.8" font-family="Times,serif" font-size="14.00">(Django Gunicorn)</text>
</g>
<!-- database&#45;&gt;app3 -->
<g id="edge5" class="edge"><title>database&#45;&gt;app3</title>
<path fill="none" stroke="black" d="M115.984,-96.4276C119.037,-94.9321 122.061,-93.4469 125,-92 147.113,-81.1122 171.576,-68.9499 192.194,-58.6654"/>
<polygon fill="black" stroke="black" points="114.25,-93.3796 106.804,-100.917 117.325,-99.6679 114.25,-93.3796"/>
<polygon fill="black" stroke="black" points="193.99,-61.6808 201.375,-54.0835 190.864,-55.4176 193.99,-61.6808"/>
<text text-anchor="middle" x="148" y="-89.8" font-family="Times,serif" font-size="14.00">TCP</text>
</g>
<!-- persistentdisk -->
<g id="node3" class="node"><title>persistentdisk</title>
<polygon fill="#7bbda4" stroke="black" points="117,-83 16,-83 16,-47 117,-47 117,-83"/>
<text text-anchor="middle" x="66.5" y="-61.3" font-family="Times,serif" font-size="14.00">Persistent Disk</text>
</g>
<!-- loadbalancer -->
<g id="node7" class="node"><title>loadbalancer</title>
<polygon fill="#7bbda4" stroke="black" points="506.5,-138 407.5,-138 407.5,-102 506.5,-102 506.5,-138"/>
<text text-anchor="middle" x="457" y="-116.3" font-family="Times,serif" font-size="14.00">Load Balancer</text>
</g>
<!-- app&#45;&gt;loadbalancer -->
<g id="edge2" class="edge"><title>app&#45;&gt;loadbalancer</title>
<path fill="none" stroke="black" d="M312.068,-157.577C339.769,-150.345 371.181,-142.144 397.577,-135.253"/>
<polygon fill="black" stroke="black" points="310.899,-154.265 302.107,-160.177 312.667,-161.038 310.899,-154.265"/>
<polygon fill="black" stroke="black" points="398.638,-138.593 407.43,-132.68 396.87,-131.82 398.638,-138.593"/>
<text text-anchor="middle" x="338" y="-157.8" font-family="Times,serif" font-size="14.00">HTTP</text>
</g>
<!-- app2&#45;&gt;loadbalancer -->
<g id="edge4" class="edge"><title>app2&#45;&gt;loadbalancer</title>
<path fill="none" stroke="black" d="M312.474,-120C339.969,-120 371.07,-120 397.273,-120"/>
<polygon fill="black" stroke="black" points="312.107,-116.5 302.107,-120 312.107,-123.5 312.107,-116.5"/>
<polygon fill="black" stroke="black" points="397.43,-123.5 407.43,-120 397.43,-116.5 397.43,-123.5"/>
<text text-anchor="middle" x="338" y="-123.8" font-family="Times,serif" font-size="14.00">HTTP</text>
</g>
<!-- app3&#45;&gt;loadbalancer -->
<g id="edge6" class="edge"><title>app3&#45;&gt;loadbalancer</title>
<path fill="none" stroke="black" d="M291.413,-58.1815C316.045,-69.2786 346.34,-82.4196 374,-93 381.564,-95.8933 389.587,-98.768 397.54,-101.503"/>
<polygon fill="black" stroke="black" points="292.82,-54.9766 282.267,-54.0381 289.932,-61.3528 292.82,-54.9766"/>
<polygon fill="black" stroke="black" points="396.575,-104.872 407.169,-104.762 398.819,-98.2409 396.575,-104.872"/>
<text text-anchor="middle" x="338" y="-89.8" font-family="Times,serif" font-size="14.00">HTTP</text>
</g>
<!-- loadbalancer&#45;&gt;browser -->
<g id="edge7" class="edge"><title>loadbalancer&#45;&gt;browser</title>
<path fill="none" stroke="black" d="M516.621,-108.593C544.372,-103.193 576.843,-96.8737 601.923,-91.9934"/>
<polygon fill="black" stroke="black" points="515.754,-105.196 506.607,-110.541 517.091,-112.067 515.754,-105.196"/>
<polygon fill="black" stroke="black" points="602.689,-95.41 611.836,-90.0643 601.352,-88.5389 602.689,-95.41"/>
<text text-anchor="middle" x="576" y="-103.8" font-family="Times,serif" font-size="14.00">HTTP</text>
</g>
<!-- cdn -->
<g id="node8" class="node"><title>cdn</title>
<polygon fill="#7bbda4" stroke="black" points="540,-84 374,-84 374,-46 540,-46 540,-84"/>
<text text-anchor="middle" x="457" y="-68.8" font-family="Times,serif" font-size="14.00">Content Delivery Network</text>
<text text-anchor="middle" x="457" y="-53.8" font-family="Times,serif" font-size="14.00">(Static Assets)</text>
</g>
<!-- cdn&#45;&gt;browser -->
<g id="edge8" class="edge"><title>cdn&#45;&gt;browser</title>
<path fill="none" stroke="black" d="M550.254,-69.413C564.921,-70.6014 579.9,-72.1035 594,-74 596.522,-74.3392 599.109,-74.7319 601.713,-75.1613"/>
<polygon fill="black" stroke="black" points="550.403,-65.9142 540.164,-68.6394 549.867,-72.8938 550.403,-65.9142"/>
<polygon fill="black" stroke="black" points="601.278,-78.639 611.739,-76.9643 602.517,-71.7496 601.278,-78.639"/>
<text text-anchor="middle" x="576" y="-77.8" font-family="Times,serif" font-size="14.00">HTTP</text>
</g>
</g>
</svg>
