<?xml version="1.0" encoding="UTF-8" standalone="no"?>
<!DOCTYPE svg PUBLIC "-//W3C//DTD SVG 1.1//EN"
 "http://www.w3.org/Graphics/SVG/1.1/DTD/svg11.dtd">
<!-- Generated by graphviz version 2.38.0 (20140413.2041)
 -->
<!-- Title: Kubernetes Pages: 1 -->
<svg width="633pt" height="298pt"
 viewBox="0.00 0.00 633.00 298.00" xmlns="http://www.w3.org/2000/svg" xmlns:xlink="http://www.w3.org/1999/xlink">
<g id="graph0" class="graph" transform="scale(1 1) rotate(0) translate(4 294)">
<title>Kubernetes</title>
<polygon fill="#fcf9f4" stroke="none" points="-4,4 -4,-294 629,-294 629,4 -4,4"/>
<g id="clust1" class="cluster"><title>clusterClient</title>
</g>
<g id="clust2" class="cluster"><title>clusterDatabaseServer</title>
<polygon fill="#f5eeeb" stroke="black" points="8,-39 8,-170 125,-170 125,-39 8,-39"/>
<text text-anchor="middle" x="66.5" y="-154.8" font-family="Times,serif" font-size="14.00">Node 1</text>
</g>
<g id="clust3" class="cluster"><title>clusterAppServer</title>
<polygon fill="#f5eeeb" stroke="black" points="171,-149 171,-282 310,-282 310,-149 171,-149"/>
<text text-anchor="middle" x="240.5" y="-266.8" font-family="Times,serif" font-size="14.00">Node 2</text>
</g>
<g id="clust4" class="cluster"><title>clusterAppServer3</title>
<polygon fill="#f5eeeb" stroke="black" points="171,-8 171,-141 310,-141 310,-8 171,-8"/>
<text text-anchor="middle" x="240.5" y="-125.8" font-family="Times,serif" font-size="14.00">Node 3</text>
</g>
<!-- browser -->
<g id="node1" class="node"><title>browser</title>
<polygon fill="#a89bb9" stroke="black" points="609,-138 545,-138 545,-102 609,-102 609,-138"/>
<text text-anchor="middle" x="577" y="-116.3" font-family="Times,serif" font-size="14.00">Browser</text>
</g>
<!-- database -->
<g id="node2" class="node"><title>database</title>
<polygon fill="#d28b71" stroke="black" points="113.5,-139 19.5,-139 19.5,-101 113.5,-101 113.5,-139"/>
<text text-anchor="middle" x="66.5" y="-123.8" font-family="Times,serif" font-size="14.00">Database</text>
<text text-anchor="middle" x="66.5" y="-108.8" font-family="Times,serif" font-size="14.00">(PostgreSQL)</text>
</g>
<!-- app -->
<g id="node4" class="node"><title>app</title>
<polygon fill="#d28b71" stroke="black" points="302,-251 179,-251 179,-213 302,-213 302,-251"/>
<text text-anchor="middle" x="240.5" y="-235.8" font-family="Times,serif" font-size="14.00">App</text>
<text text-anchor="middle" x="240.5" y="-220.8" font-family="Times,serif" font-size="14.00">(Django Gunicorn)</text>
</g>
<!-- database&#45;&gt;app -->
<g id="edge1" class="edge"><title>database&#45;&gt;app</title>
<path fill="none" stroke="black" d="M95.0459,-146.137C114.995,-164.084 143.229,-187.545 171,-204 173.623,-205.554 176.349,-207.061 179.136,-208.516"/>
<polygon fill="black" stroke="black" points="97.3075,-143.463 87.5602,-139.31 92.5908,-148.635 97.3075,-143.463"/>
<polygon fill="black" stroke="black" points="177.674,-211.698 188.191,-212.979 180.769,-205.419 177.674,-211.698"/>
<text text-anchor="middle" x="148" y="-199.8" font-family="Times,serif" font-size="14.00">TCP</text>
</g>
<!-- app2 -->
<g id="node5" class="node"><title>app2</title>
<polygon fill="#d28b71" stroke="black" points="302,-195 179,-195 179,-157 302,-157 302,-195"/>
<text text-anchor="middle" x="240.5" y="-179.8" font-family="Times,serif" font-size="14.00">App</text>
<text text-anchor="middle" x="240.5" y="-164.8" font-family="Times,serif" font-size="14.00">(Django Gunicorn)</text>
</g>
<!-- database&#45;&gt;app2 -->
<g id="edge3" class="edge"><title>database&#45;&gt;app2</title>
<path fill="none" stroke="black" d="M123.305,-138.169C138.573,-143.14 155.296,-148.585 171.179,-153.756"/>
<polygon fill="black" stroke="black" points="124.185,-134.775 113.593,-135.007 122.018,-141.431 124.185,-134.775"/>
<polygon fill="black" stroke="black" points="170.346,-157.166 180.939,-156.933 172.513,-150.51 170.346,-157.166"/>
<text text-anchor="middle" x="148" y="-152.8" font-family="Times,serif" font-size="14.00">TCP</text>
</g>
<!-- app3 -->
<g id="node6" class="node"><title>app3</title>
<polygon fill="#d28b71" stroke="black" points="302,-110 179,-110 179,-72 302,-72 302,-110"/>
<text text-anchor="middle" x="240.5" y="-94.8" font-family="Times,serif" font-size="14.00">App</text>
<text text-anchor="middle" x="240.5" y="-79.8" font-family="Times,serif" font-size="14.00">(Django Gunicorn)</text>
</g>
<!-- database&#45;&gt;app3 -->
<g id="edge5" class="edge"><title>database&#45;&gt;app3</title>
<path fill="none" stroke="black" d="M123.71,-110.523C138.01,-108.112 153.564,-105.489 168.495,-102.972"/>
<polygon fill="black" stroke="black" points="122.872,-107.115 113.593,-112.229 124.036,-114.017 122.872,-107.115"/>
<polygon fill="black" stroke="black" points="169.431,-106.363 178.71,-101.249 168.267,-99.4609 169.431,-106.363"/>
<text text-anchor="middle" x="148" y="-112.8" font-family="Times,serif" font-size="14.00">TCP</text>
</g>
<!-- app4 -->
<g id="node7" class="node"><title>app4</title>
<polygon fill="#d28b71" stroke="black" points="302,-54 179,-54 179,-16 302,-16 302,-54"/>
<text text-anchor="middle" x="240.5" y="-38.8" font-family="Times,serif" font-size="14.00">App</text>
<text text-anchor="middle" x="240.5" y="-23.8" font-family="Times,serif" font-size="14.00">(Django Gunicorn)</text>
</g>
<!-- database&#45;&gt;app4 -->
<g id="edge7" class="edge"><title>database&#45;&gt;app4</title>
<path fill="none" stroke="black" d="M117.156,-96.2475C119.824,-94.8384 122.453,-93.4173 125,-92 135.559,-86.1238 160.255,-68.5294 171,-63 174.122,-61.3935 177.358,-59.8108 180.648,-58.2653"/>
<polygon fill="black" stroke="black" points="115.284,-93.2751 108.001,-100.97 118.493,-99.4963 115.284,-93.2751"/>
<polygon fill="black" stroke="black" points="182.351,-61.336 190.014,-54.0191 179.461,-54.9607 182.351,-61.336"/>
<text text-anchor="middle" x="148" y="-89.8" font-family="Times,serif" font-size="14.00">TCP</text>
</g>
<!-- persistentdisk -->
<g id="node3" class="node"><title>persistentdisk</title>
<polygon fill="#7bbda4" stroke="black" points="117,-83 16,-83 16,-47 117,-47 117,-83"/>
<text text-anchor="middle" x="66.5" y="-61.3" font-family="Times,serif" font-size="14.00">Persistent Disk</text>
</g>
<!-- webserver -->
<g id="node8" class="node"><title>webserver</title>
<polygon fill="#7bbda4" stroke="black" points="473,-138 374,-138 374,-102 473,-102 473,-138"/>
<text text-anchor="middle" x="423.5" y="-116.3" font-family="Times,serif" font-size="14.00">Load Balancer</text>
</g>
<!-- app&#45;&gt;webserver -->
<g id="edge2" class="edge"><title>app&#45;&gt;webserver</title>
<path fill="none" stroke="black" d="M301.329,-208.595C304.294,-207.108 307.2,-205.574 310,-204 340.331,-186.943 371.819,-162.787 393.742,-144.755"/>
<polygon fill="black" stroke="black" points="299.821,-205.436 292.305,-212.904 302.837,-211.753 299.821,-205.436"/>
<polygon fill="black" stroke="black" points="396.205,-147.258 401.653,-138.171 391.727,-141.877 396.205,-147.258"/>
<text text-anchor="middle" x="338" y="-199.8" font-family="Times,serif" font-size="14.00">HTTP</text>
</g>
<!-- app2&#45;&gt;webserver -->
<g id="edge4" class="edge"><title>app2&#45;&gt;webserver</title>
<path fill="none" stroke="black" d="M311.74,-154.268C329.069,-148.907 347.442,-143.222 364.138,-138.057"/>
<polygon fill="black" stroke="black" points="310.541,-150.976 302.022,-157.275 312.61,-157.663 310.541,-150.976"/>
<polygon fill="black" stroke="black" points="365.235,-141.381 373.754,-135.082 363.166,-134.694 365.235,-141.381"/>
<text text-anchor="middle" x="338" y="-154.8" font-family="Times,serif" font-size="14.00">HTTP</text>
</g>
<!-- app3&#45;&gt;webserver -->
<g id="edge6" class="edge"><title>app3&#45;&gt;webserver</title>
<path fill="none" stroke="black" d="M312.021,-102.299C329.121,-105.039 347.223,-107.939 363.716,-110.582"/>
<polygon fill="black" stroke="black" points="312.45,-98.8231 302.022,-100.697 311.342,-105.735 312.45,-98.8231"/>
<polygon fill="black" stroke="black" points="363.326,-114.064 373.754,-112.19 364.434,-107.152 363.326,-114.064"/>
<text text-anchor="middle" x="338" y="-112.8" font-family="Times,serif" font-size="14.00">HTTP</text>
</g>
<!-- app4&#45;&gt;webserver -->
<g id="edge8" class="edge"><title>app4&#45;&gt;webserver</title>
<path fill="none" stroke="black" d="M298.728,-58.1019C302.553,-59.7354 306.338,-61.3777 310,-63 333.541,-73.4302 359.194,-86.3058 380.05,-97.1792"/>
<polygon fill="black" stroke="black" points="299.761,-54.739 289.187,-54.0762 297.04,-61.1885 299.761,-54.739"/>
<polygon fill="black" stroke="black" points="378.491,-100.313 388.972,-101.86 381.743,-94.1148 378.491,-100.313"/>
<text text-anchor="middle" x="338" y="-87.8" font-family="Times,serif" font-size="14.00">HTTP</text>
</g>
<!-- webserver&#45;&gt;browser -->
<g id="edge9" class="edge"><title>webserver&#45;&gt;browser</title>
<path fill="none" stroke="black" d="M483.402,-120C500.629,-120 519.08,-120 534.942,-120"/>
<polygon fill="black" stroke="black" points="483.27,-116.5 473.269,-120 483.269,-123.5 483.27,-116.5"/>
<polygon fill="black" stroke="black" points="534.953,-123.5 544.953,-120 534.953,-116.5 534.953,-123.5"/>
<text text-anchor="middle" x="509" y="-123.8" font-family="Times,serif" font-size="14.00">HTTP</text>
</g>
</g>
</svg>
