<?xml version="1.0" encoding="UTF-8" standalone="no"?>
<!DOCTYPE svg PUBLIC "-//W3C//DTD SVG 1.1//EN"
 "http://www.w3.org/Graphics/SVG/1.1/DTD/svg11.dtd">
<!-- Generated by graphviz version 2.38.0 (20140413.2041)
 -->
<!-- Title: Application Pages: 1 -->
<svg width="678pt" height="142pt"
 viewBox="0.00 0.00 678.00 142.00" xmlns="http://www.w3.org/2000/svg" xmlns:xlink="http://www.w3.org/1999/xlink">
<g id="graph0" class="graph" transform="scale(1 1) rotate(0) translate(4 138)">
<title>Application</title>
<polygon fill="#fcf9f4" stroke="none" points="-4,4 -4,-138 674,-138 674,4 -4,4"/>
<g id="clust1" class="cluster"><title>clusterClient</title>
</g>
<g id="clust2" class="cluster"><title>clusterServer</title>
</g>
<!-- browser -->
<g id="node1" class="node"><title>browser</title>
<polygon fill="#d28b71" stroke="black" points="654,-77 577,-77 577,-41 654,-41 654,-77"/>
<text text-anchor="middle" x="615.5" y="-54.6" font-family="Times,serif" font-size="18.00">Browser</text>
</g>
<!-- app -->
<g id="node2" class="node"><title>app</title>
<polygon fill="#d28b71" stroke="black" points="336,-118 195,-118 195,-70 336,-70 336,-118"/>
<text text-anchor="middle" x="265.5" y="-99.6" font-family="Times,serif" font-size="18.00">App</text>
<text text-anchor="middle" x="265.5" y="-79.6" font-family="Times,serif" font-size="18.00">(Django uWSGI)</text>
</g>
<!-- webserver -->
<g id="node5" class="node"><title>webserver</title>
<polygon fill="#d28b71" stroke="black" points="505,-83 411,-83 411,-35 505,-35 505,-83"/>
<text text-anchor="middle" x="458" y="-64.6" font-family="Times,serif" font-size="18.00">Webserver</text>
<text text-anchor="middle" x="458" y="-44.6" font-family="Times,serif" font-size="18.00">(NGINX)</text>
</g>
<!-- app&#45;&gt;webserver -->
<g id="edge2" class="edge"><title>app&#45;&gt;webserver</title>
<path fill="none" stroke="black" d="M346.109,-79.3737C364.528,-75.9895 383.75,-72.458 400.916,-69.3041"/>
<polygon fill="black" stroke="black" points="345.286,-75.9661 336.084,-81.2156 346.551,-82.8509 345.286,-75.9661"/>
<polygon fill="black" stroke="black" points="401.562,-72.7442 410.765,-67.4947 400.297,-65.8594 401.562,-72.7442"/>
<text text-anchor="middle" x="373.5" y="-80.8" font-family="Times,serif" font-size="14.00">Socket</text>
</g>
<!-- database -->
<g id="node3" class="node"><title>database</title>
<polygon fill="#d28b71" stroke="black" points="132,-118 16,-118 16,-70 132,-70 132,-118"/>
<text text-anchor="middle" x="74" y="-99.6" font-family="Times,serif" font-size="18.00">Database</text>
<text text-anchor="middle" x="74" y="-79.6" font-family="Times,serif" font-size="18.00">(PostgreSQL)</text>
</g>
<!-- database&#45;&gt;app -->
<g id="edge1" class="edge"><title>database&#45;&gt;app</title>
<path fill="none" stroke="black" d="M142.492,-94C156.147,-94 170.628,-94 184.661,-94"/>
<polygon fill="black" stroke="black" points="142.113,-90.5001 132.113,-94 142.113,-97.5001 142.113,-90.5001"/>
<polygon fill="black" stroke="black" points="184.782,-97.5001 194.782,-94 184.782,-90.5001 184.782,-97.5001"/>
<text text-anchor="middle" x="163.5" y="-97.8" font-family="Times,serif" font-size="14.00">SQL</text>
</g>
<!-- assets -->
<g id="node4" class="node"><title>assets</title>
<polygon fill="#d28b71" stroke="black" points="320,-52 211,-52 211,-16 320,-16 320,-52"/>
<text text-anchor="middle" x="265.5" y="-29.6" font-family="Times,serif" font-size="18.00">Static Assets</text>
</g>
<!-- assets&#45;&gt;webserver -->
<g id="edge3" class="edge"><title>assets&#45;&gt;webserver</title>
<path fill="none" stroke="black" d="M320.072,-41.0304C345.22,-44.3307 375.196,-48.2646 400.681,-51.609"/>
<polygon fill="black" stroke="black" points="400.564,-55.1237 410.935,-52.9547 401.475,-48.1832 400.564,-55.1237"/>
</g>
<!-- webserver&#45;&gt;browser -->
<g id="edge4" class="edge"><title>webserver&#45;&gt;browser</title>
<path fill="none" stroke="black" d="M515.376,-59C532.135,-59 550.33,-59 566.503,-59"/>
<polygon fill="black" stroke="black" points="515.234,-55.5001 505.234,-59 515.234,-62.5001 515.234,-55.5001"/>
<polygon fill="black" stroke="black" points="566.803,-62.5001 576.803,-59 566.803,-55.5001 566.803,-62.5001"/>
<text text-anchor="middle" x="541" y="-62.8" font-family="Times,serif" font-size="14.00">HTTP</text>
</g>
</g>
</svg>
